<?xml version="1.0" encoding="utf-8"?>
<!-- Generator: Adobe Illustrator 22.0.1, SVG Export Plug-In . SVG Version: 6.00 Build 0)  -->
<svg version="1.1" xmlns="http://www.w3.org/2000/svg" xmlns:xlink="http://www.w3.org/1999/xlink" x="0px" y="0px"
	 viewBox="0 0 240 240" style="enable-background:new 0 0 240 240;" xml:space="preserve">
<style type="text/css">
	.st0{fill:#215040;}
	.st1{fill:#730B00;}
	.st2{fill:#AD2F29;}
	.st3{fill:#FFFFFF;}
	.st4{fill:#0A2117;}
	.st5{fill:#193830;}
	.st6{fill:#111322;}
	.st7{fill:#232532;}
</style>
<g id="body">
	<rect y="-2.1" class="st0" width="240" height="242.1"/>
</g>
<g id="Layer_1">
	<path class="st1" d="M44.1,209.3c11.1,6.9,12.9,9.8,22,18.5c38.8-24.3,75.5-24.3,114.2,0c3.2-5.9,7.4-12.1,10.1-15.6
		c3.6-4.8,10-14.6,10-14.6L39.5,198C39.5,198,42.9,206.8,44.1,209.3z"/>
	<path class="st2" d="M44.1,200.8c11.1,6.9,12.9,9.8,22,18.5c38.8-24.3,75.5-24.3,114.2,0c5.3-9.8,10.6-13.5,15.6-18.9
		C145.8,168.7,94.2,168.8,44.1,200.8z"/>
	<g>
		<path class="st3" d="M71.3,181.7c6.4,4.1,9.5,6.4,15.2,11.3c3.6-7.7,5.7-11.4,10.2-18.8C86.4,176.1,81.2,177.6,71.3,181.7z"/>
		<path class="st3" d="M144.1,174.2c4.2,7.3,6.1,11,9.4,18.6c6-4.8,9.2-7.1,15.9-11.1C159.5,177.7,154.4,176.2,144.1,174.2z"/>
		<path class="st3" d="M72.6,215.4c0.9-7.8,1.6-11.7,3.4-19.5c5.9,3.9,9,6.6,14.2,11.3C83.2,210.1,79.4,211.6,72.6,215.4z"/>
		<path class="st3" d="M114.7,201.5c3.1-6.7,4.9-10,8.9-16.4c4.2,6.4,6.1,9.7,9.4,16.5C125.7,200.8,122,200.8,114.7,201.5z"/>
		<path class="st3" d="M156.2,207.2c4.9-4.8,7.6-7,13.2-11.1c2.1,7.9,3.3,11.4,4.4,19.3C167,211.5,163.3,209.9,156.2,207.2z"/>
		<g>
			<path class="st3" d="M39.5,198c1.7,1,3.2,1.9,4.6,2.8c50.1-32,101.7-32.1,151.8-0.4c1.5-1.2,2.6-2.1,4.5-2.8
				C147.1,162.3,92.9,162.8,39.5,198z"/>
		</g>
	</g>
</g>
<g id="Layer_7">
	<polygon class="st4" points="102.4,139.7 121.3,158 139.2,139.7 	"/>
	<polygon class="st5" points="128.5,71.9 120.8,71.9 113,71.9 102.4,139.7 120.8,146 139.2,139.7 	"/>
	<polygon class="st3" points="139.2,139.7 120.8,146 122.7,71.9 128.5,71.9 	"/>
</g>
<g id="Layer_3">
	<path class="st6" d="M95.1,76.7H24.8c-0.7,0-1.4,0-2.1,0.1v37.1c0.1,0,0.2,0,0.2,0l11.7-4.5c1.8-0.7,3.6-1.3,5.5-1.8
		c13-3.8,26.8-3.8,39.8,0c1.8,0.5,3.7,1.1,5.5,1.8L97,114c0.1,0,0.2,0,0.2,0V76.9C96.6,76.8,95.8,76.7,95.1,76.7z"/>
	<g>
		<path class="st6" d="M22.7,71.4v0.1c0.7-0.1,1.4-0.1,2.1-0.1H22.7z"/>
		<path class="st6" d="M97.3,108.7v-0.1c-0.1,0-0.2,0-0.2,0L97.3,108.7z"/>
		<path class="st7" d="M95.1,71.4H24.8C36,71.4,45,79.8,45,90.1c0,4.7-1.9,9-5,12.3c13-3.8,26.8-3.8,39.8,0c-3.1-3.3-5-7.6-5-12.3
			C74.9,79.8,83.9,71.4,95.1,71.4z"/>
		<path class="st6" d="M22.7,108.7l0.2-0.1c-0.1,0-0.2,0-0.2,0V108.7z"/>
		<path class="st6" d="M95.1,71.4c0.7,0,1.4,0,2.1,0.1v-0.1H95.1z"/>
		<path class="st3" d="M24.8,71.4c-0.7,0-1.4,0-2.1,0.1v37.1c0.1,0,0.2,0,0.2,0l11.7-4.5c1.8-0.7,3.6-1.3,5.5-1.8
			c3.1-3.3,5-7.6,5-12.3C45,79.8,36,71.4,24.8,71.4z"/>
		<path class="st3" d="M74.9,90.1c0,4.7,1.9,9,5,12.3c1.8,0.5,3.7,1.1,5.5,1.8l11.7,4.5c0.1,0,0.2,0,0.2,0V71.5
			c-0.7-0.1-1.4-0.1-2.1-0.1C83.9,71.4,74.9,79.8,74.9,90.1z"/>
	</g>
	<rect x="22.7" y="71.4" class="st3" width="74.6" height="5.3"/>
</g>
<g id="Layer_3_copy">
	<path class="st6" d="M217.3,76.7H147c-0.7,0-1.4,0-2.1,0.1v37.1c0.1,0,0.2,0,0.2,0l11.7-4.5c1.8-0.7,3.6-1.3,5.5-1.8
		c13-3.8,26.8-3.8,39.8,0c1.8,0.5,3.7,1.1,5.5,1.8l11.7,4.5c0.1,0,0.2,0,0.2,0V76.9C218.7,76.8,218,76.7,217.3,76.7z"/>
	<g>
		<path class="st6" d="M144.8,71.4v0.1c0.7-0.1,1.4-0.1,2.1-0.1H144.8z"/>
		<path class="st6" d="M219.4,108.7v-0.1c-0.1,0-0.2,0-0.2,0L219.4,108.7z"/>
		<path class="st7" d="M217.3,71.4H147c11.2,0,20.2,8.3,20.2,18.6c0,4.7-1.9,9-5,12.3c13-3.8,26.8-3.8,39.8,0c-3.1-3.3-5-7.6-5-12.3
			C197.1,79.8,206.1,71.4,217.3,71.4z"/>
		<path class="st6" d="M144.8,108.7l0.2-0.1c-0.1,0-0.2,0-0.2,0V108.7z"/>
		<path class="st6" d="M217.3,71.4c0.7,0,1.4,0,2.1,0.1v-0.1H217.3z"/>
		<path class="st3" d="M147,71.4c-0.7,0-1.4,0-2.1,0.1v37.1c0.1,0,0.2,0,0.2,0l11.7-4.5c1.8-0.7,3.6-1.3,5.5-1.8
			c3.1-3.3,5-7.6,5-12.3C167.2,79.8,158.2,71.4,147,71.4z"/>
		<path class="st3" d="M197.1,90.1c0,4.7,1.9,9,5,12.3c1.8,0.5,3.7,1.1,5.5,1.8l11.7,4.5c0.1,0,0.2,0,0.2,0V71.5
			c-0.7-0.1-1.4-0.1-2.1-0.1C206.1,71.4,197.1,79.8,197.1,90.1z"/>
	</g>
	<rect x="144.8" y="71.4" class="st3" width="74.6" height="5.3"/>
</g>
<g id="Layer_5">
	<rect x="22.2" y="34" transform="matrix(0.8877 -0.4604 0.4604 0.8877 -12.451 30.6416)" class="st6" width="68.7" height="13.7"/>
	<rect x="21" y="34.3" transform="matrix(0.8877 -0.4604 0.4604 0.8877 -11.5203 29.8292)" class="st7" width="68.7" height="8.5"/>
	<rect x="20" y="34.5" transform="matrix(0.8877 -0.4604 0.4604 0.8877 -10.6987 29.1119)" class="st3" width="68.7" height="3.9"/>
</g>
<g id="Layer_6">
	
		<rect x="148.8" y="34" transform="matrix(-0.8877 -0.4604 0.4604 -0.8877 326.8766 161.4162)" class="st6" width="68.7" height="13.7"/>
	
		<rect x="150" y="34.3" transform="matrix(-0.8877 -0.4604 0.4604 -0.8877 330.2078 157.6003)" class="st7" width="68.7" height="8.5"/>
	
		<rect x="151" y="34.5" transform="matrix(-0.8877 -0.4604 0.4604 -0.8877 333.1487 154.2314)" class="st3" width="68.7" height="3.9"/>
</g>
</svg>
