<?xml version="1.0" encoding="utf-8"?>
<!-- Generator: Adobe Illustrator 22.0.1, SVG Export Plug-In . SVG Version: 6.00 Build 0)  -->
<svg version="1.1" xmlns="http://www.w3.org/2000/svg" xmlns:xlink="http://www.w3.org/1999/xlink" x="0px" y="0px"
	 viewBox="0 0 240 240" style="enable-background:new 0 0 240 240;" xml:space="preserve">
<style type="text/css">
	.st0{fill:#215040;}
	.st1{fill:#7B0F05;}
	.st2{fill:#AD2F29;}
	.st3{fill:#FFFFFF;}
	.st4{fill:#0A2117;}
	.st5{fill:#193830;}
	.st6{fill:#111322;}
	.st7{fill:#232532;}
</style>
<g id="body">
	<text transform="matrix(1 0 0 1 720 2802)" style="font-family:'MyriadPro-Regular'; font-size:12px;">22664e</text>
	<rect y="-1.1" class="st0" width="241" height="242.1"/>
</g>
<g id="Layer_1">
	<g>
		<path class="st1" d="M172.5,226c-34.7-14.5-67.1-14.5-101.9,0c-6.1-12.4-18.3-37.2-18.3-37.2v-7.3h138.5v7.3
			C190.8,188.8,178.6,213.6,172.5,226z"/>
		<path class="st2" d="M172.5,218.8c-34.7-14.5-67.1-14.5-101.9,0c-6.1-12.4-12.2-24.8-18.3-37.2c46.5-20.2,92.1-20.2,138.5,0
			C184.7,194,178.6,206.4,172.5,218.8z"/>
		<path class="st3" d="M79.7,172c5.4,3.3,7.9,5,12.7,8.7c3.2-5.3,5-7.9,9-13C92.6,168.8,88.3,169.6,79.7,172z"/>
		<path class="st3" d="M141.7,167.6c3.6,5.1,5.3,7.7,8.3,12.9c5-3.6,7.7-5.4,13.4-8.5C154.8,169.6,150.4,168.7,141.7,167.6z"/>
		<path class="st3" d="M76.5,216.5c1.2-5.4,1.9-8.2,3.7-13.6c5,3.1,7.6,5.1,12.1,8.7C85.9,213.2,82.7,214.1,76.5,216.5z"/>
		<path class="st3" d="M114,208.1c2.8-4.8,4.4-7.1,7.9-11.6c3.7,4.6,5.3,6.9,8.3,11.7C123.7,207.7,120.4,207.7,114,208.1z"/>
		<path class="st3" d="M150.9,211.5c4.2-3.6,6.7-5.6,11.4-8.8c2.1,5.5,2.9,8.1,4.3,13.7C160.6,214.2,157.2,213.2,150.9,211.5z"/>
		<path class="st3" d="M189.2,184.8c-45.4-19.7-89.9-19.7-135.3,0c-0.6-1.3-1-2-1.6-3.3c46.5-20.2,92.1-20.2,138.5,0
			C190.2,182.9,189.8,183.5,189.2,184.8z"/>
	</g>
</g>
<g id="Layer_7">
	<polygon class="st4" points="102.8,140.8 121.8,159.1 139.8,140.8 	"/>
	<polygon class="st5" points="129.1,73 121.3,73 113.5,73 102.8,140.8 121.3,147 139.8,140.8 	"/>
	<polygon class="st3" points="139.8,140.8 121.3,147 123.2,73 129.1,73 	"/>
</g>
<g id="Layer_3">
	<polygon class="st6" points="91.7,112.9 20.9,96.2 29.2,60.9 100.1,77.6 	"/>
	<polygon class="st7" points="93,107.6 22.2,90.9 30.5,55.7 101.4,72.4 	"/>
	<polygon class="st3" points="100.2,77.4 29.3,60.7 30.5,55.7 101.4,72.4 	"/>
	<path class="st3" d="M47.6,78.3c2.3-9.7-4.4-19.7-15-22.2c-0.7-0.2-1.4-0.3-2-0.4l-8.3,35.1c0.7,0.2,1.3,0.4,2,0.6
		C34.8,93.9,45.3,88.1,47.6,78.3z"/>
	<path class="st3" d="M75.9,85c2.3-9.7,12.8-15.6,23.4-13.1c0.7,0.2,1.4,0.4,2,0.6L93,107.5c-0.7-0.1-1.4-0.2-2-0.4
		C80.4,104.7,73.6,94.7,75.9,85z"/>
</g>
<g id="Layer_4">
	<polygon class="st6" points="221.7,97.3 150.7,113.2 142.6,77.9 213.7,61.9 	"/>
	<polygon class="st7" points="220.3,91.3 149.3,107.3 141.3,72 212.3,56 	"/>
	<polygon class="st3" points="213.5,61 142.4,77 141.3,72 212.3,56 	"/>
	<path class="st3" d="M166.6,84.8c-2.2-9.8-12.6-15.7-23.3-13.3c-0.7,0.2-1.4,0.3-2,0.6l8,35.2c0.7-0.1,1.4-0.2,2.1-0.4
		C162,104.5,168.8,94.6,166.6,84.8z"/>
	<path class="st3" d="M195,78.5c-2.2-9.8,4.6-19.6,15.3-22c0.7-0.2,1.4-0.3,2.1-0.4l8,35.2c-0.7,0.2-1.3,0.4-2,0.6
		C207.7,94.2,197.2,88.2,195,78.5z"/>
</g>
<g id="Layer_5">
	<polygon class="st6" points="100.4,61.3 33.2,33.5 38.7,20.2 105.9,48 	"/>
	<polygon class="st7" points="102,57.4 34.8,29.6 38.7,20.2 105.9,48 	"/>
	<polygon class="st3" points="104.3,51.8 37.1,24 38.7,20.2 105.9,48 	"/>
</g>
<g id="Layer_6">
	<polygon class="st6" points="210.6,30.7 144.8,61.9 138.6,48.8 204.3,17.6 	"/>
	<polygon class="st7" points="208.6,26.6 142.9,57.7 138.6,48.8 204.3,17.6 	"/>
	<polygon class="st3" points="206.1,21.3 140.4,52.5 138.6,48.8 204.3,17.6 	"/>
</g>
</svg>
