<?xml version="1.0" encoding="utf-8"?>
<!-- Generator: Adobe Illustrator 22.0.1, SVG Export Plug-In . SVG Version: 6.00 Build 0)  -->
<svg version="1.1" xmlns="http://www.w3.org/2000/svg" xmlns:xlink="http://www.w3.org/1999/xlink" x="0px" y="0px"
	 viewBox="0 0 240 240" style="enable-background:new 0 0 240 240;" xml:space="preserve">
<style type="text/css">
	.st0{fill:#215040;}
	.st1{fill:#7E0C0B;}
	.st2{fill:#AE2F2A;}
	.st3{fill:#FFFFFF;}
	.st4{fill:#0A2117;}
	.st5{fill:#193830;}
	.st6{fill:#111322;}
	.st7{fill:#22263A;}
	.st8{fill:#232532;}
</style>
<g id="body">
	<rect y="-2.1" class="st0" width="240" height="242.1"/>
</g>
<g id="Layer_1">
	<rect x="67.9" y="177.6" class="st1" width="105.8" height="40.8"/>
	<rect x="67.9" y="169.8" class="st2" width="105.8" height="43.2"/>
	<polygon class="st3" points="89.4,172.9 97.3,184.8 105.8,172.9 	"/>
	<polygon class="st3" points="135.8,173 143.7,184.8 152.2,173 	"/>
	<polygon class="st3" points="74.3,212.9 82.2,201.1 90.6,212.9 	"/>
	<polygon class="st3" points="113.1,212.9 121,201.1 129.5,212.9 	"/>
	<polygon class="st3" points="150.9,212.9 158.8,201.1 167.3,212.9 	"/>
	<rect x="67.9" y="169.8" class="st3" width="105.8" height="3.8"/>
</g>
<g id="Layer_2">
	<polygon class="st4" points="102.4,139.7 121.3,158 139.2,139.7 	"/>
	<polygon class="st5" points="128.5,71.9 120.8,71.9 113,71.9 102.4,139.7 120.8,146 139.2,139.7 	"/>
	<polygon class="st3" points="139.2,139.7 120.8,146 122.7,71.9 128.5,71.9 	"/>
</g>
<g id="Layer_5">
	<rect x="21.4" y="25" class="st6" width="75.6" height="15.1"/>
	<rect x="21.4" y="25" class="st7" width="75.6" height="9.6"/>
	<rect x="21.4" y="25" class="st3" width="75.6" height="4.3"/>
</g>
<g id="Layer_8">
	<rect x="21.4" y="99.6" class="st6" width="75.6" height="11.3"/>
	<rect x="21.4" y="106" class="st3" width="75.6" height="5.4"/>
</g>
<g id="Layer_9">
	<rect x="144.1" y="99.6" class="st6" width="75.6" height="11.3"/>
	<rect x="144.1" y="106" class="st3" width="75.6" height="5.4"/>
</g>
<g id="Layer_11_copy">
	<rect x="144.2" y="25" class="st6" width="75.6" height="15.1"/>
	<rect x="144.2" y="25" class="st8" width="75.6" height="9.6"/>
	<rect x="144.2" y="25" class="st3" width="75.6" height="4.3"/>
</g>
<g id="Layer_11">
	<rect x="21.5" y="25" class="st6" width="75.6" height="15.1"/>
	<rect x="21.5" y="25" class="st8" width="75.6" height="9.6"/>
	<rect x="21.5" y="25" class="st3" width="75.6" height="4.3"/>
</g>
</svg>
