<?xml version="1.0" encoding="utf-8"?>
<!-- Generator: Adobe Illustrator 22.0.1, SVG Export Plug-In . SVG Version: 6.00 Build 0)  -->
<svg version="1.1" xmlns="http://www.w3.org/2000/svg" xmlns:xlink="http://www.w3.org/1999/xlink" x="0px" y="0px"
	 viewBox="0 0 240 240" style="enable-background:new 0 0 240 240;" xml:space="preserve">
<style type="text/css">
	.st0{fill:#225141;}
	.st1{fill:#7E0C0B;}
	.st2{fill:#AD2F29;}
	.st3{fill:#FFFFFF;}
	.st4{fill:#0A2117;}
	.st5{fill:#193830;}
	.st6{fill:#111322;}
	.st7{fill:#232532;}
</style>
<g id="body">
	<rect x="0" y="-1.6" class="st0" width="240.7" height="242.1"/>
</g>
<g id="Layer_1">
	<g>
		<path class="st1" d="M204.7,191.7c-51.2,44.1-117.4,44.1-168.6,0c-0.1-3.8-0.1-8.4-0.1-8.4s23.4-15.6,30.6-23.1
			c34.4,27.7,73.1,27.7,107.5,0c8,8.2,30.6,23.1,30.6,23.1S204.8,189.5,204.7,191.7z"/>
		<path class="st2" d="M204.7,183.3c-51.2,44.1-117.4,44.1-168.6,0c10.2-10.5,20.4-20.9,30.5-31.4c34.4,27.7,73.1,27.7,107.5,0
			C184.3,162.4,194.5,172.9,204.7,183.3z"/>
		<path class="st3" d="M86.8,166.1c1.1,5.9,1.9,8.9,4.2,14.7c5.7-3.1,8.3-4.9,13-8.8C96.9,170.4,93.4,169.3,86.8,166.1z"/>
		<path class="st3" d="M136.9,172c4.4,4,6.9,5.8,12.3,9.1c2.6-6,3.5-9,4.9-15C147.4,169.3,143.9,170.5,136.9,172z"/>
		<path class="st3" d="M44.7,190.2c7.5-0.2,11.3-0.8,18.2-2.3c2.1,7,3.4,10.4,6.8,17.3C59.3,200.4,54,197.6,44.7,190.2z"/>
		<path class="st3" d="M107.3,215.6c6-4.2,8.7-6.5,13.6-11.3c5.3,4.8,8.2,7,14.6,11.1C124.2,216.7,118.5,216.8,107.3,215.6z"/>
		<path class="st3" d="M171.1,205.2c3-6.7,4.2-10.1,6.1-16.8c7.1,1.3,11.1,1.9,18.9,1.8C186.8,197.6,181.6,200.4,171.1,205.2z"/>
		<path class="st3" d="M176.8,154.7c-35.7,29.2-77.1,29.2-112.8,0c1.1-1.1,1.6-1.6,2.7-2.7c34.4,27.7,73.1,27.7,107.5,0
			C175.2,153,175.8,153.6,176.8,154.7z"/>
	</g>
</g>
<g id="Layer_2">
	<polygon class="st4" points="102.7,140.2 121.6,158.5 139.6,140.2 	"/>
	<polygon class="st5" points="128.9,72.4 121.1,72.4 113.3,72.4 102.7,140.2 121.1,146.4 139.6,140.2 	"/>
	<polygon class="st3" points="139.6,140.2 121.1,146.4 123.1,72.4 128.9,72.4 	"/>
</g>
<g id="Layer_8">
	<g>
		<path class="st6" d="M88.3,104.4c-21.5-9.7-39.3-9.7-60.8,0c-1.4-4.2-2.2-6.3-3.6-10.5c23.5-10.9,44.5-10.9,68,0
			C90.5,98.1,89.7,100.2,88.3,104.4z"/>
		<path class="st3" d="M88.1,104.9c-21.4-9.6-39.1-9.6-60.5,0c-0.7-2-1-3-1.7-5c22.6-10.2,41.3-10.2,63.9,0
			C89.2,101.9,88.8,102.9,88.1,104.9z"/>
	</g>
</g>
<g id="Layer_9">
	<g>
		<path class="st6" d="M152.7,104.4c22.2-9.7,40.6-9.7,62.8,0c1.5-4.2,2.2-6.3,3.7-10.5c-24.3-10.9-45.9-10.9-70.2,0
			C150.4,98.1,151.2,100.2,152.7,104.4z"/>
		<path class="st3" d="M152.8,104.9c22.1-9.6,40.4-9.6,62.4,0c0.7-2,1.1-3,1.8-5c-23.3-10.2-42.6-10.2-66,0
			C151.8,101.9,152.1,102.9,152.8,104.9z"/>
	</g>
</g>
<g id="Layer_12_copy">
	<rect x="22" y="19.7" class="st6" width="74.9" height="14.9"/>
	<rect x="22" y="19.7" class="st7" width="74.9" height="9.4"/>
	<rect x="22" y="19.7" class="st3" width="74.9" height="4.3"/>
</g>
<g id="Layer_12">
	<rect x="143.6" y="19.7" class="st6" width="74.9" height="14.9"/>
	<rect x="143.6" y="19.7" class="st7" width="74.9" height="9.4"/>
	<rect x="143.6" y="19.7" class="st3" width="74.9" height="4.3"/>
</g>
</svg>
