<?xml version="1.0" encoding="utf-8"?>
<!-- Generator: Adobe Illustrator 22.0.1, SVG Export Plug-In . SVG Version: 6.00 Build 0)  -->
<svg version="1.1" xmlns="http://www.w3.org/2000/svg" xmlns:xlink="http://www.w3.org/1999/xlink" x="0px" y="0px"
	 viewBox="0 0 240 240" style="enable-background:new 0 0 240 240;" xml:space="preserve">
<style type="text/css">
	.st0{fill:#225141;}
	.st1{fill:#AD2F29;}
	.st2{fill:#FFFFFF;}
	.st3{fill:#7A0700;}
	.st4{fill:#0A2117;}
	.st5{fill:#193830;}
	.st6{fill:#111322;}
	.st7{fill:#232532;}
</style>
<g id="body">
	<rect x="0" y="0" class="st0" width="240" height="240"/>
</g>
<g id="mouth">
	<rect x="76.7" y="168.5" class="st1" width="86.6" height="43.7"/>
	<rect x="76.7" y="168.5" class="st2" width="86.6" height="3.8"/>
</g>
<g id="tetth">
	<polygon class="st2" points="82,212.2 88.4,200.2 95.4,212.2 	"/>
	<polygon class="st2" points="113.8,212.2 120.2,200.2 127.2,212.2 	"/>
	<polygon class="st2" points="144.7,212.2 151.2,200.2 158.1,212.2 	"/>
	<rect x="76.7" y="211.4" class="st3" width="86.6" height="7.3"/>
</g>
<g id="upper_teeth">
	<polygon class="st2" points="94.3,171.8 100.8,181.4 107.7,171.8 	"/>
	<polygon class="st2" points="132.3,171.8 138.8,181.4 145.7,171.8 	"/>
</g>
<g id="nose">
	<polygon class="st4" points="101.5,139.1 120.5,157.5 138.6,139.1 	"/>
	<polygon class="st5" points="127.8,70.8 120,70.8 112.2,70.8 101.5,139.1 120,145.4 138.6,139.1 	"/>
	<polygon class="st2" points="138.6,139.1 120,145.4 122,70.8 127.8,70.8 	"/>
</g>
<g id="eye-L">
	<rect x="23.5" y="77" class="st6" width="73.4" height="38"/>
	<rect x="23.5" y="71" class="st7" width="73.4" height="38"/>
	<rect x="23.5" y="71" class="st2" width="73.4" height="5.4"/>
	<path class="st2" d="M45.6,90c0-10.5-8.9-19-19.9-19c-0.7,0-1.4,0-2.1,0.1v37.8c0.7,0.1,1.4,0.1,2.1,0.1
		C36.6,109,45.6,100.5,45.6,90z"/>
	<path class="st2" d="M74.9,90c0-10.5,8.9-19,19.9-19c0.7,0,1.4,0,2.1,0.1v37.8c-0.7,0.1-1.4,0.1-2.1,0.1
		C83.8,109,74.9,100.5,74.9,90z"/>
</g>
<g id="eye-R">
	<rect x="143.1" y="76.8" class="st6" width="73.4" height="38"/>
	<rect x="143.1" y="71" class="st7" width="73.4" height="38"/>
	<rect x="143.1" y="71" class="st2" width="73.4" height="5.4"/>
	<path class="st2" d="M165.1,90c0-10.5-8.9-19-19.9-19c-0.7,0-1.4,0-2.1,0.1v37.8c0.7,0.1,1.4,0.1,2.1,0.1
		C156.2,109,165.1,100.5,165.1,90z"/>
	<path class="st2" d="M194.5,90c0-10.5,8.9-19,19.9-19c0.7,0,1.4,0,2.1,0.1v37.8c-0.7,0.1-1.4,0.1-2.1,0.1
		C203.4,109,194.5,100.5,194.5,90z"/>
</g>
<g id="brows-R">
	<rect x="22.6" y="22.3" class="st6" width="73.9" height="15.3"/>
	<rect x="22.6" y="22.3" class="st7" width="73.9" height="9.7"/>
	<rect x="22.6" y="22.3" class="st2" width="73.9" height="4.4"/>
</g>
<g id="brows-L">
	<rect x="142.9" y="22.3" class="st6" width="73.9" height="15.3"/>
	<rect x="142.9" y="22.3" class="st7" width="73.9" height="9.7"/>
	<rect x="142.9" y="22.3" class="st2" width="73.9" height="4.4"/>
</g>
</svg>
