<?xml version="1.0" encoding="utf-8"?>
<!-- Generator: Adobe Illustrator 22.0.1, SVG Export Plug-In . SVG Version: 6.00 Build 0)  -->
<svg version="1.1" xmlns="http://www.w3.org/2000/svg" xmlns:xlink="http://www.w3.org/1999/xlink" x="0px" y="0px"
	 viewBox="0 0 240 240" style="enable-background:new 0 0 240 240;" xml:space="preserve">
<style type="text/css">
	.st0{fill:#234F40;}
	.st1{fill:#7B0D0C;}
	.st2{clip-path:url(#SVGID_2_);fill:#AD2F29;}
	.st3{clip-path:url(#SVGID_2_);fill:#FFFFFF;}
	.st4{fill:#0A2117;}
	.st5{fill:#193830;}
	.st6{fill:#FFFFFF;}
	.st7{fill:#111322;}
	.st8{fill:#232532;}
</style>
<g id="body">
	<rect x="0" y="0" class="st0" width="240" height="240"/>
</g>
<g id="Layer_1">
	<path class="st1" d="M184.3,213.1c-30.8-18.1-64.4-17.5-87.2-13.9c-24.9,4-42.5,12.4-42.7,12.5l-4.1-8.6c0.2-0.1,0-7.6,0-7.6
		s26-2.6,45.3-5.7c15.4-2.5,30.5-2.9,44.6-1.2c14.3,1.7,49,8.7,49,8.7s0,5.5,0,7.6L184.3,213.1z"/>
	<g>
		<defs>
			<path id="SVGID_1_" d="M184.3,205.5c-30.8-18.1-64.4-17.5-87.2-13.9c-24.9,4-42.5,12.4-42.7,12.5l-4.1-8.6
				c0.8-0.4,19-9.1,45.3-13.3c15.4-2.5,30.5-2.9,44.6-1.2c17.8,2.1,34.3,7.6,49,16.3L184.3,205.5z"/>
		</defs>
		<clipPath id="SVGID_2_">
			<use xlink:href="#SVGID_1_"  style="overflow:visible;"/>
		</clipPath>
		<path class="st2" d="M184.3,205.5c-30.8-18.1-64.4-17.5-87.2-13.9c-24.9,4-42.5,12.4-42.7,12.5l-4.1-8.6c0.8-0.4,19-9.1,45.3-13.3
			c15.4-2.5,30.5-2.9,44.6-1.2c17.8,2.1,34.3,7.6,49,16.3L184.3,205.5z"/>
		<path class="st3" d="M189.1,200.8c-33-19.5-69.2-18.8-93.7-14.9c-26.7,4.3-45.6,13.4-45.8,13.4l-4.4-9.2
			c0.8-0.4,20.5-9.8,48.6-14.3c16.6-2.7,32.7-3.1,47.9-1.3c19.1,2.3,36.8,8.2,52.6,17.5L189.1,200.8z"/>
	</g>
</g>
<g id="Layer_2">
	<polygon class="st4" points="101.5,139.1 120.5,157.5 138.6,139.1 	"/>
	<polygon class="st5" points="127.8,70.8 120,70.8 112.2,70.8 101.5,139.1 120,145.4 138.6,139.1 	"/>
	<polygon class="st6" points="138.6,139.1 120,145.4 122,70.8 127.8,70.8 	"/>
</g>
<g id="Layer_8">
	<path class="st7" d="M94.1,77.2H24c-0.7,0-1.4,0-2.1,0.1v36.9c0.1,0,0.2,0,0.2,0l11.6-4.4c1.8-0.7,3.6-1.3,5.5-1.8
		c13-3.8,26.7-3.8,39.7,0c1.8,0.5,3.7,1.1,5.5,1.8l11.6,4.4c0.1,0,0.2,0,0.2,0V77.3C95.5,77.3,94.8,77.2,94.1,77.2z"/>
	<g>
		<path class="st7" d="M21.9,71.9V72c0.7-0.1,1.4-0.1,2.1-0.1H21.9z"/>
		<path class="st7" d="M96.2,109.1V109c-0.1,0-0.2,0-0.2,0L96.2,109.1z"/>
		<path class="st8" d="M94.1,71.9H24c11.1,0,20.2,8.3,20.2,18.6c0,4.7-1.9,9-5,12.2c13-3.8,26.7-3.8,39.7,0c-3.1-3.3-5-7.5-5-12.2
			C73.9,80.2,82.9,71.9,94.1,71.9z"/>
		<path class="st7" d="M21.9,109.1l0.2-0.1c-0.1,0-0.2,0-0.2,0V109.1z"/>
		<path class="st7" d="M94.1,71.9c0.7,0,1.4,0,2.1,0.1v-0.1H94.1z"/>
		<path class="st6" d="M24,71.9c-0.7,0-1.4,0-2.1,0.1V109c0.1,0,0.2,0,0.2,0l11.6-4.4c1.8-0.7,3.6-1.3,5.5-1.8c3.1-3.3,5-7.5,5-12.2
			C44.2,80.2,35.1,71.9,24,71.9z"/>
		<path class="st6" d="M73.9,90.5c0,4.7,1.9,9,5,12.2c1.8,0.5,3.7,1.1,5.5,1.8L96,109c0.1,0,0.2,0,0.2,0V72
			c-0.7-0.1-1.4-0.1-2.1-0.1C82.9,71.9,73.9,80.2,73.9,90.5z"/>
	</g>
	<rect x="21.9" y="71.9" class="st6" width="74.3" height="5.3"/>
</g>
<g id="Layer_8_copy">
	<path class="st7" d="M216.9,77.2h-70.1c-0.7,0-1.4,0-2.1,0.1v36.9c0.1,0,0.2,0,0.2,0l11.6-4.4c1.8-0.7,3.6-1.3,5.5-1.8
		c13-3.8,26.7-3.8,39.7,0c1.8,0.5,3.7,1.1,5.5,1.8l11.6,4.4c0.1,0,0.2,0,0.2,0V77.3C218.3,77.3,217.6,77.2,216.9,77.2z"/>
	<g>
		<path class="st7" d="M144.7,71.9V72c0.7-0.1,1.4-0.1,2.1-0.1H144.7z"/>
		<path class="st7" d="M219,109.1V109c-0.1,0-0.2,0-0.2,0L219,109.1z"/>
		<path class="st8" d="M216.9,71.9h-70.1c11.1,0,20.2,8.3,20.2,18.6c0,4.7-1.9,9-5,12.2c13-3.8,26.7-3.8,39.7,0
			c-3.1-3.3-5-7.5-5-12.2C196.8,80.2,205.8,71.9,216.9,71.9z"/>
		<path class="st7" d="M144.7,109.1l0.2-0.1c-0.1,0-0.2,0-0.2,0V109.1z"/>
		<path class="st7" d="M216.9,71.9c0.7,0,1.4,0,2.1,0.1v-0.1H216.9z"/>
		<path class="st6" d="M146.9,71.9c-0.7,0-1.4,0-2.1,0.1V109c0.1,0,0.2,0,0.2,0l11.6-4.4c1.8-0.7,3.6-1.3,5.5-1.8
			c3.1-3.3,5-7.5,5-12.2C167,80.2,158,71.9,146.9,71.9z"/>
		<path class="st6" d="M196.8,90.5c0,4.7,1.9,9,5,12.2c1.8,0.5,3.7,1.1,5.5,1.8l11.6,4.4c0.1,0,0.2,0,0.2,0V72
			c-0.7-0.1-1.4-0.1-2.1-0.1C205.8,71.9,196.8,80.2,196.8,90.5z"/>
	</g>
	<rect x="144.7" y="71.9" class="st6" width="74.3" height="5.3"/>
</g>
<g id="Layer_9">
	
		<rect x="18.8" y="32.9" transform="matrix(0.8877 -0.4604 0.4604 0.8877 -12.2934 30.0814)" class="st7" width="73.4" height="14.7"/>
	
		<rect x="17.5" y="33.2" transform="matrix(0.8877 -0.4604 0.4604 0.8877 -11.2989 29.2133)" class="st8" width="73.4" height="9.1"/>
	
		<rect x="16.4" y="33.5" transform="matrix(0.8877 -0.4604 0.4604 0.8877 -10.421 28.4469)" class="st6" width="73.4" height="4.2"/>
</g>
<g id="Layer_9_copy">
	
		<rect x="148.9" y="32.9" transform="matrix(-0.8877 -0.4604 0.4604 -0.8877 331.7768 161.4049)" class="st7" width="73.4" height="14.7"/>
	
		<rect x="150.1" y="33.2" transform="matrix(-0.8877 -0.4604 0.4604 -0.8877 335.3362 157.3276)" class="st8" width="73.4" height="9.1"/>
	
		<rect x="151.3" y="33.5" transform="matrix(-0.8877 -0.4604 0.4604 -0.8877 338.4787 153.7278)" class="st6" width="73.4" height="4.2"/>
</g>
</svg>
