<?xml version="1.0" encoding="utf-8"?>
<!-- Generator: Adobe Illustrator 22.0.1, SVG Export Plug-In . SVG Version: 6.00 Build 0)  -->
<svg version="1.1" xmlns="http://www.w3.org/2000/svg" xmlns:xlink="http://www.w3.org/1999/xlink" x="0px" y="0px"
	 viewBox="0 0 240 240" style="enable-background:new 0 0 240 240;" xml:space="preserve">
<style type="text/css">
	.st0{fill:#215040;}
	.st1{display:none;}
	.st2{display:inline;fill:#872323;}
	.st3{display:inline;fill:#FFFFFF;}
	.st4{display:inline;fill:#C15353;}
	.st5{fill:#872323;}
	.st6{clip-path:url(#SVGID_2_);fill:#AD2F29;}
	.st7{clip-path:url(#SVGID_2_);fill:#FFFFFF;}
	.st8{fill:#0A2117;}
	.st9{fill:#193830;}
	.st10{fill:#FFFFFF;}
	.st11{fill:#111322;}
	.st12{fill:#232532;}
</style>
<g id="body">
	<rect x="0" y="0" class="st0" width="240" height="240"/>
</g>
<g id="Layer_1" class="st1">
	<rect x="-16.7" y="277.2" class="st2" width="273.5" height="111.6"/>
	<rect x="-16.7" y="367.3" class="st3" width="273.5" height="7.5"/>
	<rect x="-16.7" y="256.7" class="st4" width="273.5" height="111.6"/>
	<polygon class="st3" points="38.8,265 59.3,295.7 81.2,265 	"/>
	<polygon class="st3" points="158.8,265 179.3,295.7 201.2,265 	"/>
	<polygon class="st3" points="-0.2,368.4 20.2,337.7 42.1,368.4 	"/>
	<polygon class="st3" points="100.2,368.4 120.7,337.7 142.6,368.4 	"/>
	<polygon class="st3" points="197.9,368.4 218.4,337.7 240.2,368.4 	"/>
	<rect x="-16.7" y="256.7" class="st3" width="273.5" height="9.8"/>
</g>
<g id="Layer_8">
	<path class="st5" d="M186.4,175.1c-31.5,18.6-66,18-89.4,14.2c-25.5-4.1-43.6-12.8-43.7-12.8l-4.2,0.5v8.3
		c0.8,0.4,19.5,9.3,46.4,13.7c15.8,2.6,31.2,3,45.7,1.2c18.3-2.2,35.1-7.8,50.2-16.7v-8.3L186.4,175.1z"/>
	<g>
		<defs>
			<path id="SVGID_1_" d="M186.4,166.7c-31.5,18.6-66,18-89.4,14.2c-25.5-4.1-43.6-12.8-43.7-12.8l-4.2,8.8
				c0.8,0.4,19.5,9.3,46.4,13.7c15.8,2.6,31.2,3,45.7,1.2c18.3-2.2,35.1-7.8,50.2-16.7L186.4,166.7z"/>
		</defs>
		<clipPath id="SVGID_2_">
			<use xlink:href="#SVGID_1_"  style="overflow:visible;"/>
		</clipPath>
		<path class="st6" d="M186.4,166.7c-31.5,18.6-66,18-89.4,14.2c-25.5-4.1-43.6-12.8-43.7-12.8l-4.2,8.8c0.8,0.4,19.5,9.3,46.4,13.7
			c15.8,2.6,31.2,3,45.7,1.2c18.3-2.2,35.1-7.8,50.2-16.7L186.4,166.7z"/>
		<path class="st7" d="M191.3,158.2c-33.9,20-70.9,19.3-96.1,15.3c-27.4-4.4-46.8-13.7-47-13.8l-4.6,9.4c0.8,0.4,21,10,49.9,14.7
			c17,2.8,33.5,3.2,49.1,1.3c19.6-2.3,37.7-8.4,53.9-17.9L191.3,158.2z"/>
	</g>
</g>
<g id="Layer_2">
	<polygon class="st8" points="101.5,139.1 120.5,157.5 138.6,139.1 	"/>
	<polygon class="st9" points="127.8,70.8 120,70.8 112.2,70.8 101.5,139.1 120,145.4 138.6,139.1 	"/>
	<polygon class="st10" points="138.6,139.1 120,145.4 122,70.8 127.8,70.8 	"/>
</g>
<g id="Layer_3">
	<rect x="19.8" y="75.5" class="st11" width="76.2" height="38.1"/>
	<rect x="19.8" y="69.6" class="st12" width="76.2" height="38.1"/>
	<rect x="19.8" y="69.6" class="st10" width="76.2" height="5.4"/>
	<path class="st10" d="M42.7,88.6c0-10.5-9.3-19.1-20.7-19.1c-0.7,0-1.5,0-2.2,0.1v37.9c0.7,0.1,1.4,0.1,2.2,0.1
		C33.4,107.7,42.7,99.1,42.7,88.6z"/>
	<path class="st10" d="M73.2,88.6c0-10.5,9.3-19.1,20.7-19.1c0.7,0,1.5,0,2.2,0.1v37.9c-0.7,0.1-1.4,0.1-2.2,0.1
		C82.4,107.7,73.2,99.1,73.2,88.6z"/>
</g>
<g id="Layer_4">
	<rect x="144" y="75.4" class="st11" width="76.2" height="38.1"/>
	<rect x="144" y="69.6" class="st12" width="76.2" height="38.1"/>
	<rect x="144" y="69.6" class="st10" width="76.2" height="5.4"/>
	<path class="st10" d="M166.8,88.6c0-10.5-9.3-19.1-20.7-19.1c-0.7,0-1.5,0-2.2,0.1v37.9c0.7,0.1,1.4,0.1,2.2,0.1
		C157.6,107.7,166.8,99.1,166.8,88.6z"/>
	<path class="st10" d="M197.3,88.6c0-10.5,9.3-19.1,20.7-19.1c0.7,0,1.5,0,2.2,0.1v37.9c-0.7,0.1-1.4,0.1-2.2,0.1
		C206.6,107.7,197.3,99.1,197.3,88.6z"/>
</g>
<g id="Layer_9_copy">
	<rect x="19.9" y="21.1" class="st11" width="76.2" height="15.2"/>
	<rect x="19.9" y="21.1" class="st12" width="76.2" height="9.6"/>
	<rect x="19.9" y="21.1" class="st10" width="76.2" height="4.4"/>
</g>
<g id="Layer_9">
	<rect x="143.6" y="21.1" class="st11" width="76.2" height="15.2"/>
	<rect x="143.6" y="21.1" class="st12" width="76.2" height="9.6"/>
	<rect x="143.6" y="21.1" class="st10" width="76.2" height="4.4"/>
</g>
</svg>
