<?xml version="1.0" encoding="utf-8"?>
<!-- Generator: Adobe Illustrator 22.0.1, SVG Export Plug-In . SVG Version: 6.00 Build 0)  -->
<svg version="1.1" xmlns="http://www.w3.org/2000/svg" xmlns:xlink="http://www.w3.org/1999/xlink" x="0px" y="0px"
	 viewBox="0 0 240 240" style="enable-background:new 0 0 240 240;" xml:space="preserve">
<style type="text/css">
	.st0{fill:#225141;}
	.st1{fill:#7B0D0C;}
	.st2{fill:#AD2F29;}
	.st3{fill:#FFFFFF;}
	.st4{fill:#0A2117;}
	.st5{fill:#193830;}
	.st6{fill:#111322;}
	.st7{fill:#232532;}
</style>
<g id="body">
	<rect class="st0" width="240" height="240"/>
</g>
<g id="Layer_1">
	<rect x="89.6" y="169.1" class="st1" width="60.7" height="57.5"/>
	<rect x="89.6" y="164.2" class="st2" width="60.7" height="57.5"/>
	<polygon class="st3" points="102,167.9 106.5,175.1 111.4,167.9 	"/>
	<polygon class="st3" points="128.6,167.9 133.2,175.1 138,167.9 	"/>
	<polygon class="st3" points="93.3,221.5 100.2,210.4 107.6,221.5 	"/>
	<polygon class="st3" points="112.8,221.7 119.7,210.5 127.1,221.7 	"/>
	<polygon class="st3" points="131.9,221.7 138.9,210.5 146.3,221.7 	"/>
	<rect x="89.6" y="164.2" class="st3" width="60.7" height="3.7"/>
</g>
<g id="Layer_2">
	<polygon class="st4" points="101.5,139.1 120.5,157.4 138.5,139.1 	"/>
	<polygon class="st5" points="127.8,70.9 120,70.9 112.2,70.9 101.5,139.1 120,145.3 138.5,139.1 	"/>
	<polygon class="st3" points="138.5,139.1 120,145.3 122,70.9 127.8,70.9 	"/>
</g>
<g id="Layer_8">
	<rect x="21.2" y="76.5" class="st6" width="75.2" height="37.6"/>
	<rect x="21.2" y="70.6" class="st7" width="75.2" height="37.6"/>
	<rect x="21.2" y="70.6" class="st3" width="75.2" height="5.4"/>
	<path class="st3" d="M43.8,89.4c0-10.4-9.1-18.8-20.4-18.8c-0.7,0-1.4,0-2.1,0.1v37.4c0.7,0.1,1.4,0.1,2.1,0.1
		C34.6,108.2,43.8,99.8,43.8,89.4z"/>
	<path class="st3" d="M73.9,89.4c0-10.4,9.1-18.8,20.4-18.8c0.7,0,1.4,0,2.1,0.1v37.4c-0.7,0.1-1.4,0.1-2.1,0.1
		C83,108.2,73.9,99.8,73.9,89.4z"/>
</g>
<g id="Layer_8_copy">
	<rect x="143.3" y="76.5" class="st6" width="75.2" height="37.6"/>
	<rect x="143.3" y="70.6" class="st7" width="75.2" height="37.6"/>
	<rect x="143.3" y="70.6" class="st3" width="75.2" height="5.4"/>
	<path class="st3" d="M165.8,89.4c0-10.4-9.1-18.8-20.4-18.8c-0.7,0-1.4,0-2.1,0.1v37.4c0.7,0.1,1.4,0.1,2.1,0.1
		C156.7,108.2,165.8,99.8,165.8,89.4z"/>
	<path class="st3" d="M195.9,89.4c0-10.4,9.1-18.8,20.4-18.8c0.7,0,1.4,0,2.1,0.1v37.4c-0.7,0.1-1.4,0.1-2.1,0.1
		C205,108.2,195.9,99.8,195.9,89.4z"/>
</g>
<g id="Layer_9">
	<rect x="144.1" y="22" class="st6" width="75.2" height="15"/>
	<rect x="144.1" y="22" class="st7" width="75.2" height="9.5"/>
	<rect x="144.1" y="22" class="st3" width="75.2" height="4.3"/>
</g>
<g id="Layer_9_copy">
	<rect x="20.1" y="22.8" class="st6" width="75.2" height="15"/>
	<rect x="20.1" y="22.8" class="st7" width="75.2" height="9.5"/>
	<rect x="20.1" y="22.8" class="st3" width="75.2" height="4.3"/>
</g>
</svg>
