<?xml version="1.0" encoding="utf-8"?>
<!-- Generator: Adobe Illustrator 22.0.1, SVG Export Plug-In . SVG Version: 6.00 Build 0)  -->
<svg version="1.1" id="Layer_17" xmlns="http://www.w3.org/2000/svg" xmlns:xlink="http://www.w3.org/1999/xlink" x="0px" y="0px"
	 viewBox="0 0 240 240" style="enable-background:new 0 0 240 240;" xml:space="preserve">
<style type="text/css">
	.st0{fill:#32394C;}
	.st1{fill:#FFFFFF;}
	.st2{fill:#0E0F11;}
	.st3{fill:#404E6A;}
	.st4{fill:#221E1F;}
	.st5{fill:#E54559;}
</style>
<g id="body">
	<rect class="st0" width="240" height="240"/>
</g>
<g id="nose">
	<path class="st1" d="M116.3,91.4L84.2,133c-2.7,3.5-0.2,8.7,4.3,8.7h63.3c4.4,0,7-5.1,4.3-8.6l-31.2-41.6
		C122.7,88.6,118.5,88.6,116.3,91.4z"/>
	<path class="st2" d="M116.2,99.5l-33.3,39c-2.8,3.3-0.2,8.1,4.4,8.1h65.5c4.6,0,7.2-4.7,4.5-8.1l-32.3-39
		C122.8,96.9,118.4,96.8,116.2,99.5z"/>
	<path class="st3" d="M116.3,96.2l-32.1,37.7c-2.7,3.2-0.2,7.8,4.3,7.8h63.3c4.4,0,7-4.6,4.3-7.8l-31.2-37.7
		C122.7,93.7,118.5,93.6,116.3,96.2z"/>
</g>
<g id="Layer_8">
	<g id="Layer_7">
	</g>
	<g>
		<path class="st1" d="M50.5,223.5c47.7-11.5,94.1-11.5,141.7,0c4.1,1.1,8.2-3,8-8.2c-2.1-45.8-49.1-63.2-84-62.7
			c-32.8,0.5-80.3,19-73.7,64.4C43.2,221.5,46.9,224.4,50.5,223.5z"/>
		<path class="st2" d="M50.4,230.9c47.7-10.9,94.1-10.9,141.8,0c4.1,1,8.2-2.8,8-7.6c-2.3-42.9-48.6-62.2-83.1-61.7
			c-32.4,0.5-81,20.7-74.5,63.4C43.2,229,46.9,231.8,50.4,230.9z"/>
		<path class="st3" d="M50.4,226.3c47.7-10.9,94.1-10.9,141.8,0c4.1,1,8.2-2.8,8-7.6c-2.3-42.9-48.6-62.2-83.1-61.7
			c-32.4,0.5-81,20.7-74.5,63.4C43.2,224.5,46.9,227.2,50.4,226.3z"/>
		<path class="st1" d="M66.8,214.2c36.7-5.9,72.2-5.9,109,0c3.2,0.6,6-2.2,5.5-5.4c-4.9-29.6-39.6-38.6-63.7-38.3
			c-21.8,0.3-58.3,9.4-56.3,39.4C61.5,212.7,64.1,214.7,66.8,214.2z"/>
		<path class="st2" d="M67.4,210.1c36.4-5.9,71.5-5.9,107.9,0c3.1,0.6,6-2.2,5.5-5.4c-4.8-29.5-39.1-38.5-63-38.2
			c-21.8,0.3-57.8,9.4-55.8,39.3C62.1,208.6,64.7,210.6,67.4,210.1z"/>
	</g>
</g>
<g id="Layer_11_copy">
	<path class="st1" d="M164.3,9.7l60.5,37.8c6.1,3.8,8.3,11.7,5,18.1c-8.1,15.7-33.1,42.1-66.9,23.4c-41.9-23.2-29-54-18.2-74.1
		C148.6,7.9,157.5,5.5,164.3,9.7z"/>
	<g id="Layer_10_copy">
		<path class="st4" d="M164.3,14.2L224.8,52c6.1,3.8,8.3,11.7,5,18.1c-8.1,15.7-33.1,42.1-66.9,23.4c-41.9-23.2-29-54-18.2-74.1
			C148.6,12.3,157.5,9.9,164.3,14.2z"/>
	</g>
	<path class="st1" d="M167.7,25.4l45.8,28.7c4.6,2.9,6.3,8.9,3.8,13.7c-6.1,11.9-25.1,31.9-50.7,17.7c-31.7-17.6-22-40.9-13.8-56.2
		C155.7,24,162.5,22.2,167.7,25.4z"/>
	<path class="st5" d="M183.6,64h-7.8c-3.7,0-6.7-3-6.7-6.7v0c0-3.7,3-6.7,6.7-6.7h7.8c3.7,0,6.7,3,6.7,6.7v0
		C190.3,60.9,187.3,64,183.6,64z"/>
</g>
<g id="Layer_11">
	<path class="st1" d="M76.1,9.7L15.5,47.5c-6.1,3.8-8.3,11.7-5,18.1c8.1,15.7,33.1,42.1,66.9,23.4c41.9-23.2,29-54,18.2-74.1
		C91.8,7.9,82.9,5.5,76.1,9.7z"/>
	<g id="Layer_10">
		<path class="st4" d="M76.1,14.2L15.5,52c-6.1,3.8-8.3,11.7-5,18.1c8.1,15.7,33.1,42.1,66.9,23.4c41.9-23.2,29-54,18.2-74.1
			C91.8,12.3,82.9,9.9,76.1,14.2z"/>
	</g>
	<path class="st1" d="M72.7,25.4L26.9,54.1c-4.6,2.9-6.3,8.9-3.8,13.7c6.1,11.9,25.1,31.9,50.7,17.7c31.7-17.6,22-40.9,13.8-56.2
		C84.7,24,77.9,22.2,72.7,25.4z"/>
	<path class="st5" d="M56.8,64h7.8c3.7,0,6.7-3,6.7-6.7v0c0-3.7-3-6.7-6.7-6.7h-7.8c-3.7,0-6.7,3-6.7,6.7v0
		C50.1,60.9,53.1,64,56.8,64z"/>
</g>
</svg>
