<?xml version="1.0" encoding="utf-8"?>
<!-- Generator: Adobe Illustrator 22.0.1, SVG Export Plug-In . SVG Version: 6.00 Build 0)  -->
<svg version="1.1" xmlns="http://www.w3.org/2000/svg" xmlns:xlink="http://www.w3.org/1999/xlink" x="0px" y="0px"
	 viewBox="0 0 240 240" style="enable-background:new 0 0 240 240;" xml:space="preserve">
<style type="text/css">
	.st0{fill:#32394C;}
	.st1{fill:#FFFFFF;}
	.st2{fill:#0E0F11;}
	.st3{fill:#404E6A;}
	.st4{fill:#221E1F;}
	.st5{fill:#E54559;}
</style>
<g id="body">
	<rect class="st0" width="240" height="240"/>
</g>
<g id="nose">
	<path class="st1" d="M116.3,91.4L84.2,133c-2.7,3.5-0.2,8.7,4.3,8.7h63.3c4.4,0,7-5.1,4.3-8.6l-31.2-41.6
		C122.7,88.6,118.5,88.6,116.3,91.4z"/>
	<path class="st2" d="M116.2,99.5l-33.3,39c-2.8,3.3-0.2,8.1,4.4,8.1h65.5c4.6,0,7.2-4.7,4.5-8.1l-32.3-39
		C122.8,96.9,118.4,96.8,116.2,99.5z"/>
	<path class="st3" d="M116.3,96.2l-32.1,37.7c-2.7,3.2-0.2,7.8,4.3,7.8h63.3c4.4,0,7-4.6,4.3-7.8l-31.2-37.7
		C122.7,93.7,118.5,93.6,116.3,96.2z"/>
</g>
<g id="Layer_8">
	<g id="Layer_7">
	</g>
	<g>
		<path class="st1" d="M50.5,224.8c47.7-11.5,94.1-11.5,141.7,0c4.1,1.1,8.2-3,8-8.2c-2.1-45.8-49.1-63.2-84-62.7
			c-32.8,0.5-80.3,19-73.7,64.4C43.2,222.8,46.9,225.7,50.5,224.8z"/>
		<path class="st2" d="M50.4,232.2c47.7-10.9,94.1-10.9,141.8,0c4.1,1,8.2-2.8,8-7.6c-2.3-42.9-48.6-62.2-83.1-61.7
			c-32.4,0.5-81,20.7-74.5,63.4C43.2,230.3,46.9,233.1,50.4,232.2z"/>
		<path class="st3" d="M50.4,227.6c47.7-10.9,94.1-10.9,141.8,0c4.1,1,8.2-2.8,8-7.6c-2.3-42.9-48.6-62.2-83.1-61.7
			c-32.4,0.5-81,20.7-74.5,63.4C43.2,225.8,46.9,228.5,50.4,227.6z"/>
		<path class="st1" d="M66.8,215.5c36.7-5.9,72.2-5.9,109,0c3.2,0.6,6-2.2,5.5-5.4c-4.9-29.6-39.6-38.6-63.7-38.3
			c-21.8,0.3-58.3,9.4-56.3,39.4C61.5,214,64.1,216,66.8,215.5z"/>
		<path class="st2" d="M67.4,211.4c36.4-5.9,71.5-5.9,107.9,0c3.1,0.6,6-2.2,5.5-5.4c-4.8-29.5-39.1-38.5-63-38.2
			c-21.8,0.3-57.8,9.4-55.8,39.3C62.1,209.9,64.7,211.9,67.4,211.4z"/>
	</g>
</g>
<g id="Layer_11_copy">
	<path class="st1" d="M202,7.7L140.8,46c-6.2,3.9-8.4,11.8-5,18.3c8.2,15.9,33.5,42.6,67.7,23.7c42.4-23.5,29.3-54.7,18.4-75
		C218,5.9,208.9,3.4,202,7.7z"/>
	<g id="Layer_10_copy">
		<path class="st4" d="M202,12.3l-61.2,38.3c-6.2,3.9-8.4,11.8-5,18.3c8.2,15.9,33.5,42.6,67.7,23.7c42.4-23.5,29.3-54.7,18.4-75
			C218,10.4,208.9,8,202,12.3z"/>
	</g>
	<path class="st1" d="M198.6,23.7l-46.4,29c-4.7,2.9-6.3,9-3.8,13.9c6.2,12,25.4,32.3,51.3,17.9c32.1-17.8,22.2-41.4,13.9-56.8
		C210.7,22.2,203.8,20.4,198.6,23.7z"/>
	<path class="st5" d="M182.5,62.6h7.9c3.7,0,6.8-3,6.8-6.8v0c0-3.7-3-6.8-6.8-6.8h-7.9c-3.7,0-6.8,3-6.8,6.8v0
		C175.8,59.6,178.8,62.6,182.5,62.6z"/>
</g>
<g id="Layer_11">
	<path class="st1" d="M38.4,7.7L99.6,46c6.2,3.9,8.4,11.8,5,18.3C96.5,80.2,71.1,107,37,88C-5.4,64.5,7.6,33.3,18.6,13
		C22.4,5.9,31.5,3.4,38.4,7.7z"/>
	<g id="Layer_10">
		<path class="st4" d="M38.4,12.3l61.2,38.3c6.2,3.9,8.4,11.8,5,18.3C96.5,84.7,71.1,111.5,37,92.5C-5.4,69,7.6,37.9,18.6,17.5
			C22.4,10.4,31.5,8,38.4,12.3z"/>
	</g>
	<path class="st1" d="M41.8,23.7l46.4,29c4.7,2.9,6.3,9,3.8,13.9c-6.2,12-25.4,32.3-51.3,17.9C8.6,66.7,18.5,43,26.8,27.6
		C29.7,22.2,36.5,20.4,41.8,23.7z"/>
	<path class="st5" d="M57.9,62.6H50c-3.7,0-6.8-3-6.8-6.8v0c0-3.7,3-6.8,6.8-6.8h7.9c3.7,0,6.8,3,6.8,6.8v0
		C64.6,59.6,61.6,62.6,57.9,62.6z"/>
</g>
</svg>
