<?xml version="1.0" encoding="utf-8"?>
<!-- Generator: Adobe Illustrator 22.0.1, SVG Export Plug-In . SVG Version: 6.00 Build 0)  -->
<svg version="1.1" xmlns="http://www.w3.org/2000/svg" xmlns:xlink="http://www.w3.org/1999/xlink" x="0px" y="0px"
	 viewBox="0 0 240 240" style="enable-background:new 0 0 240 240;" xml:space="preserve">
<style type="text/css">
	.st0{fill:#32394C;}
	.st1{fill:#FFFFFF;}
	.st2{fill:#0E0F11;}
	.st3{fill:#404E6A;}
	.st4{fill:#221E1F;}
	.st5{fill:#E54559;}
</style>
<g id="body">
	<rect class="st0" width="240" height="240"/>
</g>
<g id="nose">
	<path class="st1" d="M116.3,91.4L84.2,133c-2.7,3.5-0.2,8.7,4.3,8.7h63.3c4.4,0,7-5.1,4.3-8.6l-31.2-41.6
		C122.7,88.6,118.5,88.6,116.3,91.4z"/>
	<path class="st2" d="M116.2,99.5l-33.3,39c-2.8,3.3-0.2,8.1,4.4,8.1h65.5c4.6,0,7.2-4.7,4.5-8.1l-32.3-39
		C122.8,96.9,118.4,96.8,116.2,99.5z"/>
	<path class="st3" d="M116.3,96.2l-32.1,37.7c-2.7,3.2-0.2,7.8,4.3,7.8h63.3c4.4,0,7-4.6,4.3-7.8l-31.2-37.7
		C122.7,93.7,118.5,93.6,116.3,96.2z"/>
</g>
<g id="Layer_8">
	<g id="Layer_7">
	</g>
	<g>
		<path class="st1" d="M55.7,150.5c44,10.3,86.9,10.3,131,0c3.8-1,7.6,2.7,7.4,7.3c-2,40.8-45.4,56.3-77.6,55.9
			c-30.3-0.4-74.2-16.9-68.1-57.4C49,152.3,52.4,149.6,55.7,150.5z"/>
		<path class="st2" d="M55.7,160.6c44.1,10,87,10,131,0c3.8-1,7.6,2.6,7.4,7c-2.1,39.7-44.9,60.6-76.8,60.2
			c-30-0.4-74.8-22.3-68.8-61.7C49,162.3,52.4,159.8,55.7,160.6z"/>
		<path class="st3" d="M55.7,154.1c44.1,10,87,10,131,0c3.8-1,7.6,2.6,7.4,7c-2.1,39.7-44.9,60.6-76.8,60.2
			c-30-0.4-74.8-22.3-68.8-61.7C49,155.8,52.4,153.3,55.7,154.1z"/>
		<path class="st1" d="M70.8,169c33.9,5.5,66.8,5.5,100.7,0c2.9-0.5,5.6,2,5.1,5c-4.5,27.3-36.6,35.6-58.8,35.4
			c-20.2-0.2-53.8-8.6-52.1-36.4C65.9,170.4,68.3,168.6,70.8,169z"/>
		<path class="st2" d="M71.3,166.3c33.6,5.4,66.1,5.4,99.7,0c2.9-0.5,5.5,2,5,5c-4.4,27.2-36.1,35.6-58.3,35.3
			c-20.2-0.2-53.4-8.7-51.5-36.3C66.4,167.7,68.8,165.8,71.3,166.3z"/>
	</g>
</g>
<g id="eye_x5F_R">
	<g>
		<g>
			<ellipse class="st1" cx="184.8" cy="55.2" rx="47.9" ry="47.2"/>
		</g>
		<ellipse class="st4" cx="184.8" cy="57.8" rx="47.9" ry="46"/>
		<g>
			<circle class="st1" cx="184.8" cy="55.9" r="36.6"/>
		</g>
		<g>
			<path class="st5" d="M188.7,62.6h-7.9c-3.7,0-6.8-3-6.8-6.8v0c0-3.7,3-6.8,6.8-6.8h7.9c3.7,0,6.8,3,6.8,6.8v0
				C195.5,59.6,192.4,62.6,188.7,62.6z"/>
		</g>
	</g>
</g>
<g id="eye_x5F_L">
	<ellipse class="st1" cx="55.2" cy="54.6" rx="47.9" ry="46.6"/>
	<ellipse class="st4" cx="55.2" cy="57.8" rx="47.9" ry="46"/>
	<circle class="st1" cx="55.2" cy="55.9" r="36.6"/>
	<path class="st5" d="M59.2,62.6h-7.9c-3.7,0-6.8-3-6.8-6.8v0c0-3.7,3-6.8,6.8-6.8h7.9c3.7,0,6.8,3,6.8,6.8v0
		C65.9,59.6,62.9,62.6,59.2,62.6z"/>
</g>
</svg>
