<?xml version="1.0" encoding="utf-8"?>
<!-- Generator: Adobe Illustrator 22.0.1, SVG Export Plug-In . SVG Version: 6.00 Build 0)  -->
<svg version="1.1" xmlns="http://www.w3.org/2000/svg" xmlns:xlink="http://www.w3.org/1999/xlink" x="0px" y="0px"
	 viewBox="0 0 240 240" style="enable-background:new 0 0 240 240;" xml:space="preserve">
<style type="text/css">
	.st0{fill:#32394C;}
	.st1{fill:#FFFFFF;}
	.st2{fill:#0E0F11;}
	.st3{fill:#404E6A;}
	.st4{fill:#221E1F;}
	.st5{fill:#E54559;}
</style>
<g id="body">
	<rect class="st0" width="240" height="240"/>
</g>
<g id="nose">
	<path class="st1" d="M116.3,91.4L84.2,133c-2.7,3.5-0.2,8.7,4.3,8.7h63.3c4.4,0,7-5.1,4.3-8.6l-31.2-41.6
		C122.7,88.6,118.5,88.6,116.3,91.4z"/>
	<path class="st2" d="M116.2,99.5l-33.3,39c-2.8,3.3-0.2,8.1,4.4,8.1h65.5c4.6,0,7.2-4.7,4.5-8.1l-32.3-39
		C122.8,96.9,118.4,96.8,116.2,99.5z"/>
	<path class="st3" d="M116.3,96.2l-32.1,37.7c-2.7,3.2-0.2,7.8,4.3,7.8h63.3c4.4,0,7-4.6,4.3-7.8l-31.2-37.7
		C122.7,93.7,118.5,93.6,116.3,96.2z"/>
</g>
<g id="Layer_12">
	<g>
		<path class="st1" d="M209.6,199.6c-52.5-51-126.8-51.1-179.4,0c-3.7,4.1-4,9.7-0.8,12.1c0.5,0.4,0.8,0.6,1.3,1
			c3.1,2.4,8.1,1.2,11.3-2.3c46.4-44.5,109.4-44.5,155.9,0c3.2,3.5,8.2,4.7,11.3,2.3c0.5-0.4,0.8-0.6,1.3-1
			C213.6,209.3,213.3,203.7,209.6,199.6z"/>
		<path class="st2" d="M210.8,210.7c-53-52.2-128.7-52.3-181.8,0c-3.4,3.8-3.6,8.9-0.8,11.1c0.6,0.5,1,0.7,1.6,1.2
			c2.8,2.2,7.4,1,10.4-2.2c47.3-45.9,112.1-45.9,159.4,0c3,3.3,7.5,4.4,10.4,2.2c0.6-0.5,1-0.7,1.6-1.2
			C214.5,219.6,214.2,214.5,210.8,210.7z"/>
		<path class="st3" d="M210.8,205.2c-53-52.2-128.7-52.3-181.8,0c-3.4,3.8-3.6,8.9-0.8,11.1c0.6,0.5,1,0.7,1.6,1.2
			c2.8,2.2,7.4,1,10.4-2.2c47.3-45.9,112.1-45.9,159.4,0c3,3.3,7.5,4.4,10.4,2.2c0.6-0.5,1-0.7,1.6-1.2
			C214.5,214.1,214.2,209,210.8,205.2z"/>
	</g>
	<path class="st4" d="M122,171.4c-55,0-83.7,33.3-84.9,34.7c-0.8,0.9-0.7,2.3,0.3,3.1c0.9,0.8,2.3,0.7,3.1-0.3
		c0.3-0.3,28.7-33.1,81.5-33.1c52.8,0,78.5,32.7,78.7,33c0.7,1,2.1,1.1,3.1,0.4c1-0.7,1.2-2.1,0.4-3.1
		C203.1,204.7,177.1,171.4,122,171.4z"/>
</g>
<g id="Layer_11_copy">
	<g id="Layer_10_copy">
	</g>
	<path class="st1" d="M164.3,9.7l60.5,37.8c6.1,3.8,8.3,11.7,5,18.1c-8.1,15.7-33.1,42.1-66.9,23.4c-41.9-23.2-29-54-18.2-74.1
		C148.6,7.9,157.5,5.5,164.3,9.7z"/>
	<path class="st4" d="M164.3,14.2L224.8,52c6.1,3.8,8.3,11.7,5,18.1c-8.1,15.7-33.1,42.1-66.9,23.4c-41.9-23.2-29-54-18.2-74.1
		C148.6,12.3,157.5,9.9,164.3,14.2z"/>
	<path class="st1" d="M167.7,25.4l45.8,28.7c4.6,2.9,6.3,8.9,3.8,13.7c-6.1,11.9-25.1,31.9-50.7,17.7c-31.7-17.6-22-40.9-13.8-56.2
		C155.7,24,162.5,22.2,167.7,25.4z"/>
	<path class="st5" d="M183.6,64h-7.8c-3.7,0-6.7-3-6.7-6.7v0c0-3.7,3-6.7,6.7-6.7h7.8c3.7,0,6.7,3,6.7,6.7v0
		C190.3,60.9,187.3,64,183.6,64z"/>
</g>
<g id="Layer_11">
	<g id="Layer_10">
	</g>
	<path class="st1" d="M76.1,9.7L15.5,47.5c-6.1,3.8-8.3,11.7-5,18.1c8.1,15.7,33.1,42.1,66.9,23.4c41.9-23.2,29-54,18.2-74.1
		C91.8,7.9,82.9,5.5,76.1,9.7z"/>
	<path class="st4" d="M76.1,14.2L15.5,52c-6.1,3.8-8.3,11.7-5,18.1c8.1,15.7,33.1,42.1,66.9,23.4c41.9-23.2,29-54,18.2-74.1
		C91.8,12.3,82.9,9.9,76.1,14.2z"/>
	<path class="st1" d="M72.7,25.4L26.9,54.1c-4.6,2.9-6.3,8.9-3.8,13.7c6.1,11.9,25.1,31.9,50.7,17.7c31.7-17.6,22-40.9,13.8-56.2
		C84.7,24,77.9,22.2,72.7,25.4z"/>
	<path class="st5" d="M56.8,64h7.8c3.7,0,6.7-3,6.7-6.7v0c0-3.7-3-6.7-6.7-6.7h-7.8c-3.7,0-6.7,3-6.7,6.7v0
		C50.1,60.9,53.1,64,56.8,64z"/>
</g>
</svg>
