<?xml version="1.0" encoding="utf-8"?>
<!-- Generator: Adobe Illustrator 22.0.1, SVG Export Plug-In . SVG Version: 6.00 Build 0)  -->
<svg version="1.1" xmlns="http://www.w3.org/2000/svg" xmlns:xlink="http://www.w3.org/1999/xlink" x="0px" y="0px"
	 viewBox="0 0 240 240" style="enable-background:new 0 0 240 240;" xml:space="preserve">
<style type="text/css">
	.st0{fill:#32394C;}
	.st1{fill:#FFFFFF;}
	.st2{fill:#0E0F11;}
	.st3{fill:#404E6A;}
	.st4{fill:#221E1F;}
	.st5{fill:#E54559;}
</style>
<g id="body">
	<rect class="st0" width="240" height="240"/>
</g>
<g id="nose">
	<path class="st1" d="M116.3,91.4L84.2,133c-2.7,3.5-0.2,8.7,4.3,8.7h63.3c4.4,0,7-5.1,4.3-8.6l-31.2-41.6
		C122.7,88.6,118.5,88.6,116.3,91.4z"/>
	<path class="st2" d="M116.2,99.5l-33.3,39c-2.8,3.3-0.2,8.1,4.4,8.1h65.5c4.6,0,7.2-4.7,4.5-8.1l-32.3-39
		C122.8,96.9,118.4,96.8,116.2,99.5z"/>
	<path class="st3" d="M116.3,96.2l-32.1,37.7c-2.7,3.2-0.2,7.8,4.3,7.8h63.3c4.4,0,7-4.6,4.3-7.8l-31.2-37.7
		C122.7,93.7,118.5,93.6,116.3,96.2z"/>
</g>
<g id="mouth_copy">
	<g>
		<path class="st1" d="M198.9,169.5c-46.2,44.9-111.6,44.9-157.8,0c-3.3-3.6-3.5-8.5-0.7-10.6c0.5-0.4,0.7-0.5,1.1-0.9
			c2.7-2.1,7.1-1.1,9.9,2c40.9,39.1,96.3,39.1,137.1,0c2.8-3.1,7.2-4.2,9.9-2c0.5,0.4,0.7,0.5,1.1,0.9
			C202.4,161,202.2,165.9,198.9,169.5z"/>
		<path class="st2" d="M200,174.9c-46.6,45.9-113.3,46-159.9,0c-3-3.3-3.2-7.8-0.7-9.8c0.6-0.4,0.8-0.7,1.4-1.1
			c2.5-1.9,6.5-0.9,9.1,2c41.7,40.4,98.6,40.4,140.3,0c2.6-2.9,6.6-3.9,9.1-2c0.6,0.4,0.8,0.7,1.4,1.1
			C203.2,167.1,202.9,171.6,200,174.9z"/>
		<path class="st3" d="M200,170.4c-46.6,45.9-113.3,46-159.9,0c-3-3.3-3.2-7.8-0.7-9.8c0.6-0.4,0.8-0.7,1.4-1.1
			c2.5-1.9,6.5-0.9,9.1,2c41.7,40.4,98.6,40.4,140.3,0c2.6-2.9,6.6-3.9,9.1-2c0.6,0.4,0.8,0.7,1.4,1.1
			C203.2,162.5,202.9,167.1,200,170.4z"/>
	</g>
	<path class="st2" d="M121.8,200.1c-48.4,0-73.6-29.3-74.7-30.5c-0.7-0.8-0.6-2,0.2-2.7c0.8-0.7,2-0.6,2.7,0.2
		c0.2,0.3,25.2,29.2,71.7,29.2c46.5,0,69-28.8,69.3-29.1c0.6-0.8,1.9-1,2.7-0.4c0.8,0.6,1,1.9,0.4,2.7
		C193.2,170.8,170.2,200.1,121.8,200.1z"/>
</g>
<g id="eye_x5F_R">
	<g>
		<g>
			<ellipse class="st1" cx="184.8" cy="55.2" rx="47.9" ry="47.2"/>
		</g>
		<ellipse class="st4" cx="184.8" cy="57.8" rx="47.9" ry="46"/>
		<g>
			<circle class="st1" cx="184.8" cy="55.9" r="36.6"/>
		</g>
		<g>
			<path class="st5" d="M188.7,62.6h-7.9c-3.7,0-6.8-3-6.8-6.8v0c0-3.7,3-6.8,6.8-6.8h7.9c3.7,0,6.8,3,6.8,6.8v0
				C195.5,59.6,192.4,62.6,188.7,62.6z"/>
		</g>
	</g>
</g>
<g id="eye_x5F_L">
	<ellipse class="st1" cx="55.2" cy="54.6" rx="47.9" ry="46.6"/>
	<ellipse class="st4" cx="55.2" cy="57.8" rx="47.9" ry="46"/>
	<circle class="st1" cx="55.2" cy="55.9" r="36.6"/>
	<path class="st5" d="M59.2,62.6h-7.9c-3.7,0-6.8-3-6.8-6.8v0c0-3.7,3-6.8,6.8-6.8h7.9c3.7,0,6.8,3,6.8,6.8v0
		C65.9,59.6,62.9,62.6,59.2,62.6z"/>
</g>
</svg>
