<?xml version="1.0" encoding="utf-8"?>
<!-- Generator: Adobe Illustrator 22.0.1, SVG Export Plug-In . SVG Version: 6.00 Build 0)  -->
<svg version="1.1" xmlns="http://www.w3.org/2000/svg" xmlns:xlink="http://www.w3.org/1999/xlink" x="0px" y="0px"
	 viewBox="0 0 240 240" style="enable-background:new 0 0 240 240;" xml:space="preserve">
<style type="text/css">
	.st0{fill:#32394C;}
	.st1{fill:#FFFFFF;}
	.st2{fill:#0E0F11;}
	.st3{fill:#404E6A;}
	.st4{fill:#221E1F;}
	.st5{fill:#E54559;}
</style>
<g id="body">
	<rect class="st0" width="240" height="240"/>
</g>
<g id="nose">
	<path class="st1" d="M116.3,91.4L84.2,133c-2.7,3.5-0.2,8.7,4.3,8.7h63.3c4.4,0,7-5.1,4.3-8.6l-31.2-41.6
		C122.7,88.6,118.5,88.6,116.3,91.4z"/>
	<path class="st2" d="M116.2,99.5l-33.3,39c-2.8,3.3-0.2,8.1,4.4,8.1h65.5c4.6,0,7.2-4.7,4.5-8.1l-32.3-39
		C122.8,96.9,118.4,96.8,116.2,99.5z"/>
	<path class="st3" d="M116.3,96.2l-32.1,37.7c-2.7,3.2-0.2,7.8,4.3,7.8h63.3c4.4,0,7-4.6,4.3-7.8l-31.2-37.7
		C122.7,93.7,118.5,93.6,116.3,96.2z"/>
</g>
<g id="mouth">
	<path class="st1" d="M125.8,225.1h-11.5c-18.9,0-34.3-15.4-34.3-34.3v-3.3c0-18.9,15.4-34.3,34.3-34.3h11.5
		c18.9,0,34.3,15.4,34.3,34.3v3.3C160.1,209.7,144.6,225.1,125.8,225.1z"/>
	<path class="st2" d="M126.1,230.3h-12.3c-18.7,0-33.9-15.3-33.9-33.9v0c0-18.7,15.3-33.9,33.9-33.9h12.3
		c18.7,0,33.9,15.3,33.9,33.9v0C160.1,215.1,144.8,230.3,126.1,230.3z"/>
	<path class="st3" d="M126.1,225.1h-12.3c-18.7,0-33.9-15.3-33.9-33.9v0c0-18.7,15.3-33.9,33.9-33.9h12.3
		c18.7,0,33.9,15.3,33.9,33.9v0C160.1,209.9,144.8,225.1,126.1,225.1z"/>
	<path class="st1" d="M130.9,217h-21.8c-10.5,0-19.2-8.6-19.2-19.2V190c0-10.5,8.6-19.2,19.2-19.2h21.8c10.5,0,19.2,8.6,19.2,19.2
		v7.9C150,208.4,141.4,217,130.9,217z"/>
	<path class="st2" d="M130.9,211.3h-21.8c-10.5,0-19.2-8.6-19.2-19.2v-7.9c0-10.5,8.6-19.2,19.2-19.2h21.8
		c10.5,0,19.2,8.6,19.2,19.2v7.9C150,202.6,141.4,211.3,130.9,211.3z"/>
</g>
<g id="eye_x5F_R">
	<g>
		<g>
			<ellipse class="st1" cx="184.8" cy="55.2" rx="47.9" ry="47.2"/>
		</g>
		<ellipse class="st4" cx="184.8" cy="57.8" rx="47.9" ry="46"/>
		<g>
			<circle class="st1" cx="184.8" cy="55.9" r="36.6"/>
		</g>
		<g>
			<path class="st5" d="M188.7,62.6h-7.9c-3.7,0-6.8-3-6.8-6.8v0c0-3.7,3-6.8,6.8-6.8h7.9c3.7,0,6.8,3,6.8,6.8v0
				C195.5,59.6,192.4,62.6,188.7,62.6z"/>
		</g>
	</g>
</g>
<g id="eye_x5F_L">
	<ellipse class="st1" cx="55.2" cy="54.6" rx="47.9" ry="46.6"/>
	<ellipse class="st4" cx="55.2" cy="57.8" rx="47.9" ry="46"/>
	<circle class="st1" cx="55.2" cy="55.9" r="36.6"/>
	<path class="st5" d="M59.2,62.6h-7.9c-3.7,0-6.8-3-6.8-6.8v0c0-3.7,3-6.8,6.8-6.8h7.9c3.7,0,6.8,3,6.8,6.8v0
		C65.9,59.6,62.9,62.6,59.2,62.6z"/>
</g>
</svg>
