<?xml version="1.0" encoding="utf-8"?>
<!-- Generator: Adobe Illustrator 22.0.1, SVG Export Plug-In . SVG Version: 6.00 Build 0)  -->
<svg version="1.1" xmlns="http://www.w3.org/2000/svg" xmlns:xlink="http://www.w3.org/1999/xlink" x="0px" y="0px"
	 viewBox="0 0 240 240" style="enable-background:new 0 0 240 240;" xml:space="preserve">
<style type="text/css">
	.st0{fill:#32394C;}
	.st1{fill:#FFFFFF;}
	.st2{fill:#0E0F11;}
	.st3{fill:#404E6A;}
	.st4{display:none;}
	.st5{display:inline;fill:#FFFFFF;}
	.st6{display:inline;fill:#0E0F11;}
	.st7{display:inline;fill:#404E6A;}
	.st8{display:inline;}
	.st9{fill:#221E1F;}
	.st10{fill:#E54559;}
</style>
<g id="body">
	<rect class="st0" width="240" height="240"/>
</g>
<g id="nose">
	<path class="st1" d="M116.3,91.4L84.2,133c-2.7,3.5-0.2,8.7,4.3,8.7h63.3c4.4,0,7-5.1,4.3-8.6l-31.2-41.6
		C122.7,88.6,118.5,88.6,116.3,91.4z"/>
	<path class="st2" d="M116.2,99.5l-33.3,39c-2.8,3.3-0.2,8.1,4.4,8.1h65.5c4.6,0,7.2-4.7,4.5-8.1l-32.3-39
		C122.8,96.9,118.4,96.8,116.2,99.5z"/>
	<path class="st3" d="M116.3,96.2l-32.1,37.7c-2.7,3.2-0.2,7.8,4.3,7.8h63.3c4.4,0,7-4.6,4.3-7.8l-31.2-37.7
		C122.7,93.7,118.5,93.6,116.3,96.2z"/>
</g>
<g id="mouth_copy_4" class="st4">
	<path class="st5" d="M193.1,204.4H46.9c-7.3,0-13.2-5.9-13.2-13.2v0c0-7.3,5.9-13.2,13.2-13.2h146.2c7.3,0,13.2,5.9,13.2,13.2v0
		C206.3,198.5,200.3,204.4,193.1,204.4z"/>
	<path class="st6" d="M193.7,209.6H46.3c-7,0-12.6-5.7-12.6-12.6v0c0-7,5.7-12.6,12.6-12.6h147.3c7,0,12.6,5.7,12.6,12.6v0
		C206.3,203.9,200.6,209.6,193.7,209.6z"/>
	<path class="st7" d="M193.7,204.8H46.3c-7,0-12.6-5.7-12.6-12.6v0c0-7,5.7-12.6,12.6-12.6h147.3c7,0,12.6,5.7,12.6,12.6v0
		C206.3,199.1,200.6,204.8,193.7,204.8z"/>
	<path class="st5" d="M184.8,195.9H55.2c-1.9,0-3.4-1.5-3.4-3.4l0,0c0-1.9,1.5-3.4,3.4-3.4h129.7c1.9,0,3.4,1.5,3.4,3.4l0,0
		C188.3,194.4,186.7,195.9,184.8,195.9z"/>
	<path class="st6" d="M184.8,195.1H55.2c-1.9,0-3.4-1.5-3.4-3.4v0c0-1.9,1.5-3.4,3.4-3.4h129.7c1.9,0,3.4,1.5,3.4,3.4v0
		C188.3,193.5,186.7,195.1,184.8,195.1z"/>
</g>
<g id="mouth_copy_3">
	<path class="st1" d="M151.5,222.2H88.5c-18.7,0-34-15.3-34-34v0c0-18.7,15.3-34,34-34h62.9c18.7,0,34,15.3,34,34v0
		C185.4,206.9,170.2,222.2,151.5,222.2z"/>
	<path class="st2" d="M152.9,229.5H87.1c-17.9,0-32.5-14.6-32.5-32.5v0c0-17.9,14.6-32.5,32.5-32.5h65.9c17.9,0,32.5,14.6,32.5,32.5
		v0C185.4,214.9,170.8,229.5,152.9,229.5z"/>
	<path class="st3" d="M152.9,223.1H87.1c-17.9,0-32.5-14.6-32.5-32.5v0c0-17.9,14.6-32.5,32.5-32.5h65.9c17.9,0,32.5,14.6,32.5,32.5
		v0C185.4,208.4,170.8,223.1,152.9,223.1z"/>
	<path class="st1" d="M150.7,214.2H89.3c-11.6,0-21.1-9.5-21.1-21.1v0c0-11.6,9.5-21.1,21.1-21.1h61.3c11.6,0,21.1,9.5,21.1,21.1v0
		C171.8,204.7,162.3,214.2,150.7,214.2z"/>
	<path class="st2" d="M150.7,208.9H89.3c-11.6,0-21.1-9.5-21.1-21.1v0c0-11.6,9.5-21.1,21.1-21.1h61.3c11.6,0,21.1,9.5,21.1,21.1v0
		C171.8,199.4,162.3,208.9,150.7,208.9z"/>
</g>
<g id="mouth_copy_2" class="st4">
	<path class="st5" d="M120,228.8L120,228.8c-10.5,0-19.1-8.6-19.1-19.1v-28.6c0-10.5,8.6-19.1,19.1-19.1h0
		c10.5,0,19.1,8.6,19.1,19.1v28.6C139.1,220.2,130.5,228.8,120,228.8z"/>
	<path class="st6" d="M120,236L120,236c-10.5,0-19.1-8.6-19.1-19.1v-26.4c0-10.5,8.6-19.1,19.1-19.1h0c10.5,0,19.1,8.6,19.1,19.1
		v26.4C139.1,227.4,130.5,236,120,236z"/>
	<path class="st7" d="M120,230.5L120,230.5c-10.5,0-19.1-8.6-19.1-19.1V185c0-10.5,8.6-19.1,19.1-19.1h0c10.5,0,19.1,8.6,19.1,19.1
		v26.4C139.1,221.9,130.5,230.5,120,230.5z"/>
	<path class="st5" d="M120,223.8L120,223.8c-6.6,0-12-5.4-12-12v-21.9c0-6.6,5.4-12,12-12h0c6.6,0,12,5.4,12,12v21.9
		C132,218.4,126.6,223.8,120,223.8z"/>
	<path class="st6" d="M120,218.1L120,218.1c-6.6,0-12-5.4-12-12v-21.9c0-6.6,5.4-12,12-12h0c6.6,0,12,5.4,12,12v21.9
		C132,212.7,126.6,218.1,120,218.1z"/>
</g>
<g id="mouth_copy" class="st4">
	<path class="st5" d="M131,208.2H109c-10.5,0-19.2-8.6-19.2-19.2v0c0-10.5,8.6-19.2,19.2-19.2H131c10.5,0,19.2,8.6,19.2,19.2v0
		C150.2,199.6,141.6,208.2,131,208.2z"/>
	<path class="st6" d="M131.2,214h-22.3c-10.5,0-19-8.6-19-19v0c0-10.5,8.6-19,19-19h22.3c10.5,0,19,8.6,19,19v0
		C150.2,205.5,141.6,214,131.2,214z"/>
	<path class="st7" d="M131.2,210.2h-22.3c-10.5,0-19-8.6-19-19v0c0-10.5,8.6-19,19-19h22.3c10.5,0,19,8.6,19,19v0
		C150.2,201.6,141.6,210.2,131.2,210.2z"/>
	<path class="st5" d="M128.9,202.4h-17.7c-5.5,0-10.1-4.5-10.1-10.1v0c0-5.5,4.5-10.1,10.1-10.1h17.7c5.5,0,10.1,4.5,10.1,10.1v0
		C138.9,197.9,134.4,202.4,128.9,202.4z"/>
	<path class="st6" d="M128.9,199.9h-17.7c-5.5,0-10.1-4.5-10.1-10.1v0c0-5.5,4.5-10.1,10.1-10.1h17.7c5.5,0,10.1,4.5,10.1,10.1v0
		C138.9,195.3,134.4,199.9,128.9,199.9z"/>
</g>
<g id="mouth" class="st4">
	<path class="st5" d="M181.1,212.1H58.9c-7.5,0-13.6-6.1-13.6-13.6v0c0-7.5,6.1-13.6,13.6-13.6h122.2c7.5,0,13.6,6.1,13.6,13.6v0
		C194.7,206,188.6,212.1,181.1,212.1z"/>
	<path class="st6" d="M181.9,216H58.1c-7.1,0-12.9-5.8-12.9-12.9v0c0-7.1,5.8-12.9,12.9-12.9h123.7c7.1,0,12.9,5.8,12.9,12.9v0
		C194.7,210.2,188.9,216,181.9,216z"/>
	<path class="st7" d="M181.9,212.1H58.1c-7.1,0-12.9-5.8-12.9-12.9v0c0-7.1,5.8-12.9,12.9-12.9h123.7c7.1,0,12.9,5.8,12.9,12.9v0
		C194.7,206.3,188.9,212.1,181.9,212.1z"/>
	<path class="st5" d="M174.7,206.8H65.3c-3.7,0-6.8-3.1-6.8-6.8v0c0-3.7,3.1-6.8,6.8-6.8h109.4c3.7,0,6.8,3.1,6.8,6.8v0
		C181.5,203.8,178.4,206.8,174.7,206.8z"/>
	<path class="st6" d="M174.7,205.1H65.3c-3.7,0-6.8-3.1-6.8-6.8v0c0-3.7,3.1-6.8,6.8-6.8h109.4c3.7,0,6.8,3.1,6.8,6.8v0
		C181.5,202.1,178.4,205.1,174.7,205.1z"/>
</g>
<g id="Layer_11" class="st4">
	<g class="st8">
		<path class="st1" d="M51.3,158.4c46.4,10.8,91.5,10.8,137.9,0c4-1,8,2.9,7.8,7.7c-2.1,43-47.8,59.3-81.7,58.8
			c-31.9-0.5-78.1-17.8-71.6-60.4C44.3,160.3,47.9,157.5,51.3,158.4z"/>
		<path class="st2" d="M51.3,168.6c46.4,10.6,91.5,10.6,137.9,0c4-1,8,2.7,7.8,7.4c-2.2,41.8-47.3,60.5-80.9,60
			c-31.6-0.4-78.8-20.1-72.5-61.6C44.2,170.4,47.9,167.8,51.3,168.6z"/>
		<path class="st3" d="M51.3,162.2c46.4,10.6,91.5,10.6,137.9,0c4-1,8,2.7,7.8,7.4c-2.2,41.8-47.3,60.5-80.9,60
			c-31.6-0.4-78.8-20.1-72.5-61.6C44.2,164,47.9,161.3,51.3,162.2z"/>
		<path class="st1" d="M67.3,177.9c35.7,5.8,70.3,5.8,106,0c3.1-0.6,5.9,2.1,5.3,5.2c-4.8,28.8-38.5,37.5-61.9,37.2
			c-21.3-0.2-56.7-9.1-54.8-38.3C62,179.3,64.6,177.4,67.3,177.9z"/>
		<path class="st2" d="M67.8,175c35.4,5.7,69.6,5.7,104.9,0c3.1-0.6,5.8,2.1,5.3,5.3c-4.6,28.7-38,37.5-61.3,37.2
			c-21.2-0.2-56.2-9.2-54.3-38.3C62.6,176.5,65.1,174.5,67.8,175z"/>
	</g>
</g>
<g id="eye_x5F_R">
	<g>
		<g>
			<ellipse class="st1" cx="184.8" cy="55.2" rx="47.9" ry="47.2"/>
		</g>
		<ellipse class="st9" cx="184.8" cy="57.8" rx="47.9" ry="46"/>
		<g>
			<circle class="st1" cx="184.8" cy="55.9" r="36.6"/>
		</g>
		<g>
			<path class="st10" d="M188.7,62.6h-7.9c-3.7,0-6.8-3-6.8-6.8v0c0-3.7,3-6.8,6.8-6.8h7.9c3.7,0,6.8,3,6.8,6.8v0
				C195.5,59.6,192.4,62.6,188.7,62.6z"/>
		</g>
	</g>
</g>
<g id="eye_x5F_L">
	<ellipse class="st1" cx="55.2" cy="54.6" rx="47.9" ry="46.6"/>
	<ellipse class="st9" cx="55.2" cy="57.8" rx="47.9" ry="46"/>
	<circle class="st1" cx="55.2" cy="55.9" r="36.6"/>
	<path class="st10" d="M59.2,62.6h-7.9c-3.7,0-6.8-3-6.8-6.8v0c0-3.7,3-6.8,6.8-6.8h7.9c3.7,0,6.8,3,6.8,6.8v0
		C65.9,59.6,62.9,62.6,59.2,62.6z"/>
</g>
</svg>
