<?xml version="1.0" encoding="utf-8"?>
<!-- Generator: Adobe Illustrator 22.0.1, SVG Export Plug-In . SVG Version: 6.00 Build 0)  -->
<svg version="1.1" xmlns="http://www.w3.org/2000/svg" xmlns:xlink="http://www.w3.org/1999/xlink" x="0px" y="0px"
	 viewBox="0 0 240 240" style="enable-background:new 0 0 240 240;" xml:space="preserve">
<style type="text/css">
	.st0{fill:#32394C;}
	.st1{fill:#FFFFFF;}
	.st2{fill:#0E0F11;}
	.st3{fill:#404E6A;}
	.st4{display:none;}
	.st5{display:inline;fill:#FFFFFF;}
	.st6{display:inline;fill:#0E0F11;}
	.st7{display:inline;fill:#404E6A;}
	.st8{display:inline;}
	.st9{fill:#221E1F;}
	.st10{fill:#E54559;}
</style>
<g id="body">
	<rect class="st0" width="240" height="240"/>
</g>
<g id="nose">
	<path class="st1" d="M116.3,91.4L84.2,133c-2.7,3.5-0.2,8.7,4.3,8.7h63.3c4.4,0,7-5.1,4.3-8.6l-31.2-41.6
		C122.7,88.6,118.5,88.6,116.3,91.4z"/>
	<path class="st2" d="M116.2,99.5l-33.3,39c-2.8,3.3-0.2,8.1,4.4,8.1h65.5c4.6,0,7.2-4.7,4.5-8.1l-32.3-39
		C122.8,96.9,118.4,96.8,116.2,99.5z"/>
	<path class="st3" d="M116.3,96.2l-32.1,37.7c-2.7,3.2-0.2,7.8,4.3,7.8h63.3c4.4,0,7-4.6,4.3-7.8l-31.2-37.7
		C122.7,93.7,118.5,93.6,116.3,96.2z"/>
</g>
<g id="mouth_copy_4">
	<path class="st1" d="M193.1,204.4H46.9c-7.3,0-13.2-5.9-13.2-13.2v0c0-7.3,5.9-13.2,13.2-13.2h146.2c7.3,0,13.2,5.9,13.2,13.2v0
		C206.3,198.5,200.3,204.4,193.1,204.4z"/>
	<path class="st2" d="M193.7,209.6H46.3c-7,0-12.6-5.7-12.6-12.6v0c0-7,5.7-12.6,12.6-12.6h147.3c7,0,12.6,5.7,12.6,12.6v0
		C206.3,203.9,200.6,209.6,193.7,209.6z"/>
	<path class="st3" d="M193.7,204.8H46.3c-7,0-12.6-5.7-12.6-12.6v0c0-7,5.7-12.6,12.6-12.6h147.3c7,0,12.6,5.7,12.6,12.6v0
		C206.3,199.1,200.6,204.8,193.7,204.8z"/>
	<path class="st1" d="M184.8,195.9H55.2c-1.9,0-3.4-1.5-3.4-3.4l0,0c0-1.9,1.5-3.4,3.4-3.4h129.7c1.9,0,3.4,1.5,3.4,3.4l0,0
		C188.3,194.4,186.7,195.9,184.8,195.9z"/>
	<path class="st2" d="M184.8,195.1H55.2c-1.9,0-3.4-1.5-3.4-3.4v0c0-1.9,1.5-3.4,3.4-3.4h129.7c1.9,0,3.4,1.5,3.4,3.4v0
		C188.3,193.5,186.7,195.1,184.8,195.1z"/>
</g>
<g id="mouth_copy_3" class="st4">
	<path class="st5" d="M271.6,430.8H-31.6c-28.3,0-51.4-23.1-51.4-51.4v-108c0-28.3,23.1-51.4,51.4-51.4h303.2
		c28.3,0,51.4,23.1,51.4,51.4v108C323,407.7,299.9,430.8,271.6,430.8z"/>
	<path class="st6" d="M272.6,453.6H-32.6c-27.7,0-50.4-22.7-50.4-50.4V302.4c0-27.7,22.7-50.4,50.4-50.4h305.2
		c27.7,0,50.4,22.7,50.4,50.4v100.8C323,430.9,300.3,453.6,272.6,453.6z"/>
	<path class="st7" d="M272.6,433.6H-32.6c-27.7,0-50.4-22.7-50.4-50.4V282.4c0-27.7,22.7-50.4,50.4-50.4h305.2
		c27.7,0,50.4,22.7,50.4,50.4v100.8C323,410.9,300.3,433.6,272.6,433.6z"/>
	<path class="st5" d="M234.6,406H5.4c-25.3,0-46-20.7-46-46V321c0-25.3,20.7-46,46-46h229.2c25.3,0,46,20.7,46,46v39.1
		C280.6,385.4,259.9,406,234.6,406z"/>
	<path class="st6" d="M234.6,389.7H5.4c-25.3,0-46-20.7-46-46v-39.1c0-25.3,20.7-46,46-46h229.2c25.3,0,46,20.7,46,46v39.1
		C280.6,369,259.9,389.7,234.6,389.7z"/>
</g>
<g id="mouth_copy_2" class="st4">
	<path class="st5" d="M156.8,432.9H83.2c-12.3,0-22.4-10.1-22.4-22.4V248.1c0-12.3,10.1-22.4,22.4-22.4h73.7
		c12.3,0,22.4,10.1,22.4,22.4v162.4C179.2,422.8,169.2,432.9,156.8,432.9z"/>
	<path class="st6" d="M157.7,455H82.3c-11.9,0-21.6-9.7-21.6-21.6V276.1c0-11.9,9.7-21.6,21.6-21.6h75.4c11.9,0,21.6,9.7,21.6,21.6
		v157.3C179.2,445.3,169.5,455,157.7,455z"/>
	<path class="st7" d="M157.7,438H82.3c-11.9,0-21.6-9.7-21.6-21.6V259.1c0-11.9,9.7-21.6,21.6-21.6h75.4c11.9,0,21.6,9.7,21.6,21.6
		v157.3C179.2,428.3,169.5,438,157.7,438z"/>
	<path class="st5" d="M140,417.4H100c-9.4,0-17.1-7.7-17.1-17.1V292.2c0-9.4,7.7-17.1,17.1-17.1H140c9.4,0,17.1,7.7,17.1,17.1v108.1
		C157.1,409.7,149.5,417.4,140,417.4z"/>
	<path class="st6" d="M140,399.6H100c-9.4,0-17.1-7.7-17.1-17.1V274.4c0-9.4,7.7-17.1,17.1-17.1H140c9.4,0,17.1,7.7,17.1,17.1v108.1
		C157.1,391.9,149.5,399.6,140,399.6z"/>
</g>
<g id="mouth_copy" class="st4">
	<path class="st5" d="M192.6,368.8H47.4c-11.6,0-21.1-9.5-21.1-21.1V271c0-11.6,9.5-21.1,21.1-21.1h145.2c11.6,0,21.1,9.5,21.1,21.1
		v76.7C213.7,359.3,204.2,368.8,192.6,368.8z"/>
	<path class="st6" d="M193,387H47c-11.3,0-20.6-9.3-20.6-20.6v-76.8c0-11.3,9.3-20.6,20.6-20.6H193c11.3,0,20.6,9.3,20.6,20.6v76.8
		C213.7,377.7,204.4,387,193,387z"/>
	<path class="st7" d="M193,375H47c-11.3,0-20.6-9.3-20.6-20.6v-76.8c0-11.3,9.3-20.6,20.6-20.6H193c11.3,0,20.6,9.3,20.6,20.6v76.8
		C213.7,365.7,204.4,375,193,375z"/>
	<path class="st5" d="M162.6,350.9H77.4c-8.9,0-16.2-7.3-16.2-16.2v-30.2c0-8.9,7.3-16.2,16.2-16.2h85.1c8.9,0,16.2,7.3,16.2,16.2
		v30.2C178.7,343.6,171.5,350.9,162.6,350.9z"/>
	<path class="st6" d="M162.6,343.1H77.4c-8.9,0-16.2-7.3-16.2-16.2v-30.2c0-8.9,7.3-16.2,16.2-16.2h85.1c8.9,0,16.2,7.3,16.2,16.2
		v30.2C178.7,335.8,171.5,343.1,162.6,343.1z"/>
</g>
<g id="mouth" class="st4">
	<path class="st5" d="M329.4,381H-89.4c-12.3,0-22.4-10.1-22.4-22.4v-39.7c0-12.3,10.1-22.4,22.4-22.4h418.8
		c12.3,0,22.4,10.1,22.4,22.4v39.7C351.8,370.9,341.7,381,329.4,381z"/>
	<path class="st6" d="M330.4,393H-90.4c-11.8,0-21.4-9.6-21.4-21.4v-36.9c0-11.8,9.6-21.4,21.4-21.4h420.8
		c11.8,0,21.4,9.6,21.4,21.4v36.9C351.8,383.3,342.2,393,330.4,393z"/>
	<path class="st7" d="M330.4,381H-90.4c-11.8,0-21.4-9.6-21.4-21.4v-36.9c0-11.8,9.6-21.4,21.4-21.4h420.8
		c11.8,0,21.4,9.6,21.4,21.4v36.9C351.8,371.3,342.2,381,330.4,381z"/>
	<path class="st5" d="M301,364.7H-61c-5.4,0-9.8-4.4-9.8-9.8v-22.8c0-5.4,4.4-9.8,9.8-9.8h362c5.4,0,9.8,4.4,9.8,9.8v22.8
		C310.8,360.3,306.4,364.7,301,364.7z"/>
	<path class="st6" d="M301,359.4H-61c-5.4,0-9.8-4.4-9.8-9.8v-22.8c0-5.4,4.4-9.8,9.8-9.8h362c5.4,0,9.8,4.4,9.8,9.8v22.8
		C310.8,355,306.4,359.4,301,359.4z"/>
</g>
<g id="Layer_11" class="st4">
	<g class="st8">
		<path class="st1" d="M-90.2,214.3c143.8,33.5,283.8,33.5,427.6,0c12.4-3.2,24.9,8.9,24.2,23.8C355.1,371.3,213.4,422,108.2,420.5
			C9.1,419.1-134,365.4-114,233C-112.1,220.2-100.8,211.6-90.2,214.3z"/>
		<path class="st2" d="M-90.3,246.1c143.9,32.8,284,32.8,427.8,0c12.4-3.1,24.8,8.5,24.1,22.9C354.7,398.5,215,456.7,110.7,455.3
			c-97.9-1.4-244.4-62.5-224.8-191.2C-112.2,251.7-100.9,243.4-90.3,246.1z"/>
		<path class="st3" d="M-90.3,226.1c143.9,32.8,284,32.8,427.8,0c12.4-3.1,24.8,8.5,24.1,22.9C354.7,378.5,215,436.7,110.7,435.3
			c-97.9-1.4-244.4-62.5-224.8-191.2C-112.2,231.7-100.9,223.4-90.3,226.1z"/>
		<path class="st1" d="M-40.8,274.9c110.8,17.9,218,17.9,328.8,0c9.6-1.7,18.2,6.6,16.6,16.3c-14.8,89.3-119.5,116.4-192.1,115.5
			c-65.9-0.8-175.8-28.2-170-118.8C-56.9,279.4-49,273.4-40.8,274.9z"/>
		<path class="st2" d="M-39.1,265.9c109.7,17.7,215.8,17.7,325.5,0c9.5-1.7,18,6.6,16.5,16.3c-14.4,88.9-117.9,116.2-190.2,115.3
			C46.8,396.8-61.7,369-55.7,278.9C-55.2,270.4-47.3,264.4-39.1,265.9z"/>
	</g>
</g>
<g id="eye_x5F_R">
	<g>
		<g>
			<ellipse class="st1" cx="184.8" cy="55.2" rx="47.9" ry="47.2"/>
		</g>
		<ellipse class="st9" cx="184.8" cy="57.8" rx="47.9" ry="46"/>
		<g>
			<circle class="st1" cx="184.8" cy="55.9" r="36.6"/>
		</g>
		<g>
			<path class="st10" d="M188.7,62.6h-7.9c-3.7,0-6.8-3-6.8-6.8v0c0-3.7,3-6.8,6.8-6.8h7.9c3.7,0,6.8,3,6.8,6.8v0
				C195.5,59.6,192.4,62.6,188.7,62.6z"/>
		</g>
	</g>
</g>
<g id="eye_x5F_L">
	<ellipse class="st1" cx="55.2" cy="54.6" rx="47.9" ry="46.6"/>
	<ellipse class="st9" cx="55.2" cy="57.8" rx="47.9" ry="46"/>
	<circle class="st1" cx="55.2" cy="55.9" r="36.6"/>
	<path class="st10" d="M59.2,62.6h-7.9c-3.7,0-6.8-3-6.8-6.8v0c0-3.7,3-6.8,6.8-6.8h7.9c3.7,0,6.8,3,6.8,6.8v0
		C65.9,59.6,62.9,62.6,59.2,62.6z"/>
</g>
</svg>
